<svg width="1851" height="706" viewBox="0 0 1851 706" fill="none" xmlns="http://www.w3.org/2000/svg">
<path d="M612.173 384.388C612.173 521.716 500.846 633.043 363.518 633.043C226.191 633.043 114.864 521.716 114.864 384.388C114.864 247.06 226.191 135.734 363.518 135.734C500.846 135.734 612.173 247.06 612.173 384.388Z" stroke="#153951" stroke-width="25"/>
<rect x="379.641" y="293.225" width="240.404" height="79.5012" transform="rotate(-45 379.641 293.225)" fill="white"/>
<rect x="98.3887" y="569.349" width="304.831" height="79.5012" transform="rotate(-45 98.3887 569.349)" fill="white"/>
<path d="M160.478 407.678C159.638 407.678 158.984 407.398 158.518 406.838C158.144 406.185 157.958 405.438 157.958 404.598C158.051 403.198 158.331 402.358 158.798 402.078C159.264 401.798 160.151 401.658 161.458 401.658C164.164 401.658 166.171 401.192 167.478 400.258C168.784 399.232 169.578 398.018 169.858 396.618C170.231 395.125 170.464 393.212 170.558 390.878V335.298C170.464 332.965 170.231 331.098 169.858 329.698C169.578 328.205 168.784 326.992 167.478 326.058C166.171 325.032 164.164 324.518 161.458 324.518H160.618C159.684 324.518 159.031 324.378 158.658 324.098C158.284 323.725 158.051 322.885 157.958 321.578C157.958 320.738 158.144 320.038 158.518 319.478C158.984 318.825 159.638 318.498 160.478 318.498C166.544 318.778 172.051 318.918 176.998 318.918H196.738C201.871 318.918 206.024 319.292 209.198 320.038C212.371 320.785 215.218 321.952 217.738 323.538C220.164 325.125 222.078 327.318 223.478 330.118C224.878 332.825 225.578 335.812 225.578 339.078C225.578 344.865 223.664 349.485 219.838 352.938C216.104 356.298 211.718 358.585 206.678 359.798V360.218C211.531 360.218 215.918 361.198 219.838 363.158C223.851 365.025 226.931 367.592 229.078 370.858C231.318 374.032 232.438 377.485 232.438 381.218C232.438 387.565 230.478 392.698 226.558 396.618C222.731 400.538 217.878 403.338 211.998 405.018C206.211 406.605 200.191 407.398 193.938 407.398L177.138 407.258C172.098 407.258 166.544 407.398 160.478 407.678ZM190.298 357.418C194.031 357.418 197.251 357.138 199.958 356.578C202.758 356.018 205.231 354.525 207.378 352.098C209.524 349.672 210.598 345.892 210.598 340.758C210.598 329.652 205.138 324.098 194.218 324.098H184.418V357.418H190.298ZM194.498 401.798C201.404 401.705 206.911 400.025 211.018 396.758C215.218 393.398 217.318 387.938 217.318 380.378C216.851 375.338 214.471 371.185 210.178 367.918C205.978 364.652 199.304 363.018 190.158 363.018H184.418V390.878C184.418 394.052 184.698 396.432 185.258 398.018C185.911 399.512 186.891 400.538 188.198 401.098C189.598 401.565 191.698 401.798 194.498 401.798Z" fill="#153951"/>
<path d="M489.912 407.678C489.165 407.678 488.559 407.398 488.092 406.838C487.719 406.185 487.532 405.438 487.532 404.598C487.625 403.198 487.905 402.358 488.372 402.078C488.839 401.798 489.725 401.658 491.032 401.658C493.739 401.658 495.745 401.192 497.052 400.258C498.359 399.232 499.152 398.018 499.432 396.618C499.805 395.125 500.039 393.212 500.132 390.878V335.298C500.039 332.965 499.805 331.098 499.432 329.698C499.152 328.205 498.359 326.992 497.052 326.058C495.745 325.032 493.739 324.518 491.032 324.518H490.192C489.259 324.518 488.605 324.378 488.232 324.098C487.859 323.725 487.625 322.885 487.532 321.578C487.532 320.738 487.719 320.038 488.092 319.478C488.559 318.825 489.165 318.498 489.912 318.498C496.072 318.778 501.625 318.918 506.572 318.918H528.412C537.372 318.918 545.492 320.738 552.772 324.378C560.145 327.925 565.932 333.058 570.132 339.778C574.425 346.498 576.572 354.432 576.572 363.578C576.572 373.098 574.145 381.172 569.292 387.798C564.532 394.332 558.279 399.232 550.532 402.498C542.879 405.672 534.665 407.258 525.892 407.258H506.572C501.625 407.258 496.072 407.398 489.912 407.678ZM527.992 402.078C538.912 402.078 546.892 398.718 551.932 391.998C557.065 385.185 559.632 375.712 559.632 363.578C559.632 355.925 558.232 349.112 555.432 343.138C552.725 337.072 548.759 332.358 543.532 328.998C538.305 325.638 532.099 323.958 524.912 323.958L513.992 324.098V392.558C513.992 396.198 515.065 398.718 517.212 400.118C519.452 401.425 523.045 402.078 527.992 402.078Z" fill="#153951"/>
<mask id="path-6-inside-1" fill="white">
<path fill-rule="evenodd" clip-rule="evenodd" d="M639.137 102.086L599.497 162.179L599.482 162.165L585.502 148.184L585.507 148.18L574.896 137.578L557.988 120.67L557.776 120.458L619.907 82.8557L639.137 102.086ZM670.251 54.9165L673.029 50.705L672.637 50.9425L670.251 54.9165ZM609.701 173.951L609.224 173.636L599.482 183.378L122.619 660.241L122.619 660.242L119.084 663.778L90.2967 692.565C89.3201 693.541 88.1917 694.273 86.9875 694.762C84.8738 695.619 82.5263 695.723 80.3556 695.076C78.8175 694.616 77.3681 693.78 76.1534 692.565L27.5874 643.999C23.6822 640.094 23.6822 633.762 27.5874 629.857L536.774 120.67L546.633 110.811L546.128 109.975L674.751 32.13C686.153 25.2291 698.996 38.5813 691.657 49.7068L609.701 173.951ZM129.048 605.03L138.81 614.792L142.833 618.815L588.876 172.771L574.9 158.796L129.048 605.03ZM66.5271 612.13L67.873 613.476L104 649.603L108.022 653.625L83.2245 678.423L41.7295 636.928L66.5271 612.13ZM564.293 148.189L118.441 594.423L102.684 578.666L101.338 577.32L547.381 131.276L564.293 148.189ZM92.0771 589.272L128.204 625.399L114.606 638.996L78.4796 602.87L92.0771 589.272Z"/>
</mask>
<path fill-rule="evenodd" clip-rule="evenodd" d="M639.137 102.086L599.497 162.179L599.482 162.165L585.502 148.184L585.507 148.18L574.896 137.578L557.988 120.67L557.776 120.458L619.907 82.8557L639.137 102.086ZM670.251 54.9165L673.029 50.705L672.637 50.9425L670.251 54.9165ZM609.701 173.951L609.224 173.636L599.482 183.378L122.619 660.241L122.619 660.242L119.084 663.778L90.2967 692.565C89.3201 693.541 88.1917 694.273 86.9875 694.762C84.8738 695.619 82.5263 695.723 80.3556 695.076C78.8175 694.616 77.3681 693.78 76.1534 692.565L27.5874 643.999C23.6822 640.094 23.6822 633.762 27.5874 629.857L536.774 120.67L546.633 110.811L546.128 109.975L674.751 32.13C686.153 25.2291 698.996 38.5813 691.657 49.7068L609.701 173.951ZM129.048 605.03L138.81 614.792L142.833 618.815L588.876 172.771L574.9 158.796L129.048 605.03ZM66.5271 612.13L67.873 613.476L104 649.603L108.022 653.625L83.2245 678.423L41.7295 636.928L66.5271 612.13ZM564.293 148.189L118.441 594.423L102.684 578.666L101.338 577.32L547.381 131.276L564.293 148.189ZM92.0771 589.272L128.204 625.399L114.606 638.996L78.4796 602.87L92.0771 589.272Z" fill="#3081B0"/>
<path d="M599.497 162.179L588.89 172.786L601.893 185.789L612.018 170.439L599.497 162.179ZM639.137 102.086L651.658 110.345L658.396 100.131L649.744 91.479L639.137 102.086ZM585.502 148.184L574.889 137.584L564.295 148.191L574.896 158.791L585.502 148.184ZM585.507 148.18L596.12 158.78L606.718 148.169L596.109 137.569L585.507 148.18ZM574.896 137.578L564.289 148.184L564.294 148.189L574.896 137.578ZM557.988 120.67L547.381 131.276L547.381 131.276L557.988 120.67ZM557.776 120.458L550.01 107.626L533.638 117.534L547.17 131.065L557.776 120.458ZM619.907 82.8557L630.514 72.2491L622.2 63.9349L612.14 70.0229L619.907 82.8557ZM670.251 54.9165L657.391 47.1961L682.773 63.1759L670.251 54.9165ZM673.029 50.705L685.551 58.9645L665.263 37.8723L673.029 50.705ZM672.637 50.9425L664.87 38.1098L661.69 40.0347L659.776 43.2222L672.637 50.9425ZM609.224 173.636L617.484 161.115L607.27 154.378L598.617 163.03L609.224 173.636ZM609.701 173.951L601.442 186.473L613.963 194.732L622.223 182.211L609.701 173.951ZM599.482 183.378L588.876 172.771L599.482 183.378ZM122.619 660.241L112.012 649.635L101.406 660.241L112.012 670.848L122.619 660.241ZM122.619 660.242L133.226 670.849L143.833 660.242L133.226 649.635L122.619 660.242ZM86.9875 694.762L81.3522 680.86L81.3505 680.861L86.9875 694.762ZM80.3556 695.076L76.0657 709.449L76.0658 709.449L80.3556 695.076ZM27.5874 629.857L16.9808 619.25L27.5874 629.857ZM536.774 120.67L547.381 131.276L536.774 120.67ZM546.633 110.811L557.24 121.417L565.554 113.103L559.466 103.044L546.633 110.811ZM546.128 109.975L538.361 97.1425L525.528 104.909L533.295 117.742L546.128 109.975ZM674.751 32.13L666.984 19.2972L666.984 19.2972L674.751 32.13ZM691.657 49.7068L679.136 41.4473L691.657 49.7068ZM129.048 605.03L118.437 594.428L107.839 605.034L118.441 615.636L129.048 605.03ZM142.833 618.815L132.226 629.421L142.833 640.028L153.439 629.421L142.833 618.815ZM588.876 172.771L599.482 183.378L610.089 172.771L599.482 162.165L588.876 172.771ZM574.9 158.796L585.507 148.189L574.896 137.578L564.289 148.193L574.9 158.796ZM67.873 613.476L57.2664 624.083L57.2664 624.083L67.873 613.476ZM66.5271 612.13L77.1337 601.524L66.5271 590.917L55.9205 601.524L66.5271 612.13ZM104 649.603L114.606 638.996L114.606 638.996L104 649.603ZM108.022 653.625L118.629 664.232L129.235 653.625L118.629 643.019L108.022 653.625ZM83.2245 678.423L72.6179 689.029L83.2245 699.636L93.8311 689.029L83.2245 678.423ZM41.7295 636.928L31.1229 626.321L20.5163 636.928L31.1229 647.534L41.7295 636.928ZM118.441 594.423L107.834 605.03L118.446 615.641L129.052 605.025L118.441 594.423ZM564.293 148.189L574.905 158.791L585.502 148.184L574.9 137.582L564.293 148.189ZM102.684 578.666L113.29 568.059L102.684 578.666ZM101.338 577.32L90.7311 566.713L80.1245 577.32L90.7311 587.926L101.338 577.32ZM547.381 131.276L557.988 120.67L547.381 110.063L536.774 120.67L547.381 131.276ZM128.204 625.399L138.81 636.005L149.417 625.399L138.81 614.792L128.204 625.399ZM92.0771 589.272L102.684 578.666L92.0771 568.059L81.4705 578.666L92.0771 589.272ZM114.606 638.996L104 649.603L114.606 660.209L125.213 649.603L114.606 638.996ZM78.4796 602.87L67.873 592.263L57.2664 602.87L67.873 613.476L78.4796 602.87ZM612.018 170.439L651.658 110.345L626.616 93.8261L586.976 153.92L612.018 170.439ZM588.876 172.771L588.89 172.786L610.104 151.573L610.089 151.558L588.876 172.771ZM574.896 158.791L588.876 172.771L610.089 151.558L596.109 137.578L574.896 158.791ZM574.894 137.579L574.889 137.584L596.115 158.785L596.12 158.78L574.894 137.579ZM564.294 148.189L574.905 158.791L596.109 137.569L585.498 126.967L564.294 148.189ZM547.381 131.276L564.289 148.184L585.502 126.971L568.594 110.063L547.381 131.276ZM547.17 131.065L547.381 131.276L568.594 110.063L568.383 109.852L547.17 131.065ZM612.14 70.0229L550.01 107.626L565.543 133.291L627.674 95.6884L612.14 70.0229ZM649.744 91.479L630.514 72.2491L609.301 93.4623L628.53 112.692L649.744 91.479ZM682.773 63.1759L685.551 58.9645L660.508 42.4456L657.73 46.657L682.773 63.1759ZM665.263 37.8723L664.87 38.1098L680.404 63.7753L680.796 63.5378L665.263 37.8723ZM659.776 43.2222L657.391 47.1961L683.112 62.6369L685.498 58.6629L659.776 43.2222ZM600.965 186.158L601.442 186.473L617.961 161.43L617.484 161.115L600.965 186.158ZM610.089 193.985L619.831 184.243L598.617 163.03L588.876 172.771L610.089 193.985ZM133.226 670.848L610.089 193.985L588.876 172.771L112.012 649.635L133.226 670.848ZM133.226 649.635L133.226 649.635L112.012 670.848L112.013 670.849L133.226 649.635ZM129.691 674.384L133.226 670.849L112.013 649.635L108.477 653.171L129.691 674.384ZM100.903 703.171L129.691 674.384L108.477 653.171L79.6901 681.958L100.903 703.171ZM92.6228 708.663C95.6521 707.435 98.4798 705.595 100.903 703.171L79.6901 681.958C80.1604 681.488 80.7312 681.112 81.3522 680.86L92.6228 708.663ZM76.0658 709.449C81.4821 711.066 87.3315 710.809 92.6245 708.662L81.3505 680.861C82.4161 680.429 83.5706 680.381 84.6454 680.702L76.0658 709.449ZM65.5468 703.172C68.5649 706.19 72.2011 708.296 76.0657 709.449L84.6455 680.702C85.4338 680.937 86.1713 681.37 86.76 681.958L65.5468 703.172ZM16.9808 654.605L65.5468 703.172L86.76 681.958L38.194 633.392L16.9808 654.605ZM16.9808 619.25C7.21767 629.013 7.21769 644.842 16.9808 654.605L38.194 633.392C40.1466 635.345 40.1466 638.511 38.194 640.463L16.9808 619.25ZM526.168 110.063L16.9808 619.25L38.194 640.463L547.381 131.276L526.168 110.063ZM536.027 100.204L526.168 110.063L547.381 131.276L557.24 121.417L536.027 100.204ZM533.295 117.742L533.801 118.578L559.466 103.044L558.96 102.209L533.295 117.742ZM666.984 19.2972L538.361 97.1425L553.894 122.808L682.517 44.9627L666.984 19.2972ZM704.179 57.9662C720.324 33.4901 692.069 4.11548 666.984 19.2972L682.517 44.9627C682.307 45.0898 681.607 45.3382 680.735 45.1907C680.026 45.071 679.621 44.765 679.421 44.557C679.221 44.349 678.931 43.9323 678.839 43.2199C678.726 42.3425 679.001 41.6522 679.136 41.4473L704.179 57.9662ZM622.223 182.211L704.179 57.9662L679.136 41.4473L597.18 165.692L622.223 182.211ZM149.417 604.185L139.654 594.423L118.441 615.636L128.204 625.399L149.417 604.185ZM153.439 608.208L149.417 604.185L128.204 625.399L132.226 629.421L153.439 608.208ZM578.269 162.165L132.226 608.208L153.439 629.421L599.482 183.378L578.269 162.165ZM564.293 169.402L578.269 183.378L599.482 162.165L585.507 148.189L564.293 169.402ZM139.659 615.632L585.511 169.398L564.289 148.193L118.437 594.428L139.659 615.632ZM78.4796 602.87L77.1337 601.524L55.9205 622.737L57.2664 624.083L78.4796 602.87ZM114.606 638.996L78.4796 602.87L57.2664 624.083L93.393 660.209L114.606 638.996ZM118.629 643.019L114.606 638.996L93.393 660.209L97.4155 664.232L118.629 643.019ZM93.8311 689.029L118.629 664.232L97.4155 643.019L72.6179 667.816L93.8311 689.029ZM31.1229 647.534L72.6179 689.029L93.8311 667.816L52.3361 626.321L31.1229 647.534ZM55.9205 601.524L31.1229 626.321L52.3361 647.534L77.1337 622.737L55.9205 601.524ZM129.052 605.025L574.905 158.791L553.682 137.587L107.83 583.821L129.052 605.025ZM92.0771 589.272L107.834 605.03L129.048 583.816L113.29 568.059L92.0771 589.272ZM90.7311 587.926L92.0771 589.272L113.29 568.059L111.944 566.713L90.7311 587.926ZM536.774 120.67L90.7311 566.713L111.944 587.926L557.988 141.883L536.774 120.67ZM574.9 137.582L557.988 120.67L536.774 141.883L553.687 158.796L574.9 137.582ZM138.81 614.792L102.684 578.666L81.4705 599.879L117.597 636.005L138.81 614.792ZM125.213 649.603L138.81 636.005L117.597 614.792L104 628.389L125.213 649.603ZM67.873 613.476L104 649.603L125.213 628.389L89.0862 592.263L67.873 613.476ZM81.4705 578.666L67.873 592.263L89.0862 613.476L102.684 599.879L81.4705 578.666Z" fill="#3081B0" mask="url(#path-6-inside-1)"/>
<rect x="176.469" y="123.234" width="640.032" height="79.5012" transform="rotate(45 176.469 123.234)" fill="white"/>
<mask id="path-9-inside-2" fill="white">
<path fill-rule="evenodd" clip-rule="evenodd" d="M102.085 80.7404L162.179 120.38L162.165 120.395L148.184 134.375L148.15 134.342L137.577 144.982L120.67 161.89L120.458 162.101L82.8554 99.9703L102.085 80.7404ZM54.9158 49.6258L50.7048 46.8481L50.9423 47.2404L54.9158 49.6258ZM173.951 110.176L173.636 110.653L183.378 120.395L660.241 597.258L660.242 597.258L663.777 600.794L692.565 629.581C693.053 630.069 693.48 630.596 693.846 631.151C695.594 633.797 695.951 637.092 694.918 640.004C694.436 641.362 693.652 642.637 692.565 643.724L643.999 692.29C640.093 696.195 633.762 696.195 629.857 692.29L120.67 183.103L110.811 173.244L109.975 173.75L32.1297 45.1267C25.2289 33.7245 38.5811 20.8814 49.7065 28.2201L173.951 110.176ZM606.288 589.571L616.024 579.835L618.814 577.045L172.771 131.002L158.825 144.948L606.288 589.571ZM612.13 653.35L613.476 652.004L650.835 614.646L653.625 611.855L678.423 636.653L636.928 678.148L612.13 653.35ZM148.218 155.555L595.681 600.178L578.665 617.194L577.319 618.54L131.276 172.496L148.218 155.555ZM589.272 627.8L626.631 590.442L640.228 604.039L602.869 641.398L589.272 627.8Z"/>
</mask>
<path fill-rule="evenodd" clip-rule="evenodd" d="M102.085 80.7404L162.179 120.38L162.165 120.395L148.184 134.375L148.15 134.342L137.577 144.982L120.67 161.89L120.458 162.101L82.8554 99.9703L102.085 80.7404ZM54.9158 49.6258L50.7048 46.8481L50.9423 47.2404L54.9158 49.6258ZM173.951 110.176L173.636 110.653L183.378 120.395L660.241 597.258L660.242 597.258L663.777 600.794L692.565 629.581C693.053 630.069 693.48 630.596 693.846 631.151C695.594 633.797 695.951 637.092 694.918 640.004C694.436 641.362 693.652 642.637 692.565 643.724L643.999 692.29C640.093 696.195 633.762 696.195 629.857 692.29L120.67 183.103L110.811 173.244L109.975 173.75L32.1297 45.1267C25.2289 33.7245 38.5811 20.8814 49.7065 28.2201L173.951 110.176ZM606.288 589.571L616.024 579.835L618.814 577.045L172.771 131.002L158.825 144.948L606.288 589.571ZM612.13 653.35L613.476 652.004L650.835 614.646L653.625 611.855L678.423 636.653L636.928 678.148L612.13 653.35ZM148.218 155.555L595.681 600.178L578.665 617.194L577.319 618.54L131.276 172.496L148.218 155.555ZM589.272 627.8L626.631 590.442L640.228 604.039L602.869 641.398L589.272 627.8Z" fill="#8DC1E2"/>
<path d="M162.179 120.38L172.786 130.987L185.788 117.984L170.439 107.859L162.179 120.38ZM102.085 80.7404L110.345 68.2192L100.131 61.4817L91.4787 70.1338L102.085 80.7404ZM148.184 134.375L137.611 145.016L148.218 155.555L158.791 144.982L148.184 134.375ZM148.15 134.342L158.723 123.701L148.083 113.129L137.51 123.769L148.15 134.342ZM137.577 144.982L148.184 155.589L148.201 155.572L148.218 155.555L137.577 144.982ZM120.67 161.89L110.063 151.283L120.67 161.89ZM120.458 162.101L107.625 169.868L117.534 186.239L131.065 172.708L120.458 162.101ZM82.8554 99.9703L72.2488 89.3637L63.9347 97.6779L70.0227 107.737L82.8554 99.9703ZM54.9158 49.6258L47.1954 62.4864L63.1753 37.1046L54.9158 49.6258ZM50.7048 46.8481L58.9642 34.3268L37.8721 54.6147L50.7048 46.8481ZM50.9423 47.2404L38.1095 55.0071L40.0344 58.1876L43.2219 60.1011L50.9423 47.2404ZM173.636 110.653L161.115 102.394L154.378 112.608L163.03 121.26L173.636 110.653ZM173.951 110.176L186.472 118.435L194.732 105.914L182.21 97.6548L173.951 110.176ZM183.378 120.395L172.771 131.002L183.378 120.395ZM660.241 597.258L649.635 607.865L660.241 618.472L670.848 607.865L660.241 597.258ZM660.242 597.258L670.848 586.651L660.242 576.045L649.635 586.651L660.242 597.258ZM663.777 600.794L674.384 590.187L663.777 600.794ZM692.565 629.581L681.958 640.187L692.565 629.581ZM693.846 631.151L681.328 639.414L681.329 639.415L693.846 631.151ZM694.918 640.004L709.054 645.02L709.055 645.02L694.918 640.004ZM629.857 692.29L619.25 702.897L629.857 692.29ZM120.67 183.103L110.063 193.71L120.67 183.103ZM110.811 173.244L121.417 162.638L113.103 154.323L103.044 160.411L110.811 173.244ZM109.975 173.75L97.1422 181.516L104.909 194.349L117.742 186.583L109.975 173.75ZM32.1297 45.1267L44.9625 37.3601L44.9625 37.3601L32.1297 45.1267ZM49.7065 28.2201L41.4471 40.7414L41.4471 40.7414L49.7065 28.2201ZM606.288 589.571L595.715 600.211L606.322 610.75L616.895 600.178L606.288 589.571ZM618.814 577.045L629.421 587.651L640.028 577.045L629.421 566.438L618.814 577.045ZM172.771 131.002L183.378 120.395L172.771 109.788L162.165 120.395L172.771 131.002ZM158.825 144.948L148.218 134.342L137.577 144.982L148.252 155.588L158.825 144.948ZM613.476 652.004L624.083 662.611L613.476 652.004ZM612.13 653.35L601.524 642.744L590.917 653.35L601.524 663.957L612.13 653.35ZM653.625 611.855L664.232 601.249L653.625 590.642L643.018 601.249L653.625 611.855ZM678.423 636.653L689.029 647.259L699.636 636.653L689.029 626.046L678.423 636.653ZM636.928 678.148L626.321 688.754L636.928 699.361L647.534 688.754L636.928 678.148ZM595.681 600.178L606.288 610.784L616.929 600.144L606.254 589.537L595.681 600.178ZM148.218 155.555L158.791 144.914L148.184 134.375L137.611 144.948L148.218 155.555ZM577.319 618.54L566.713 629.146L577.319 639.753L587.926 629.146L577.319 618.54ZM131.276 172.496L120.67 161.89L110.063 172.496L120.67 183.103L131.276 172.496ZM626.631 590.442L637.237 579.835L626.631 569.228L616.024 579.835L626.631 590.442ZM589.272 627.8L578.665 617.194L568.059 627.8L578.665 638.407L589.272 627.8ZM640.228 604.039L650.835 614.646L661.441 604.039L650.835 593.432L640.228 604.039ZM602.869 641.398L592.263 652.004L602.869 662.611L613.476 652.004L602.869 641.398ZM170.439 107.859L110.345 68.2192L93.8259 93.2617L153.92 132.902L170.439 107.859ZM172.771 131.002L172.786 130.987L151.572 109.774L151.558 109.788L172.771 131.002ZM158.791 144.982L172.771 131.002L151.558 109.788L137.578 123.769L158.791 144.982ZM137.578 144.982L137.611 145.016L158.757 123.735L158.723 123.701L137.578 144.982ZM148.218 155.555L158.791 144.914L137.51 123.769L126.937 134.409L148.218 155.555ZM131.276 172.496L148.184 155.589L126.971 134.375L110.063 151.283L131.276 172.496ZM131.065 172.708L131.276 172.496L110.063 151.283L109.852 151.495L131.065 172.708ZM70.0227 107.737L107.625 169.868L133.291 154.335L95.6882 92.2037L70.0227 107.737ZM91.4787 70.1338L72.2488 89.3637L93.462 110.577L112.692 91.347L91.4787 70.1338ZM63.1753 37.1046L58.9642 34.3268L42.4453 59.3693L46.6564 62.1471L63.1753 37.1046ZM37.8721 54.6147L38.1095 55.0071L63.775 39.4738L63.5375 39.0814L37.8721 54.6147ZM43.2219 60.1011L47.1954 62.4864L62.6362 36.7652L58.6626 34.3798L43.2219 60.1011ZM186.157 118.913L186.472 118.435L161.43 101.917L161.115 102.394L186.157 118.913ZM193.984 109.788L184.243 100.047L163.03 121.26L172.771 131.002L193.984 109.788ZM670.848 586.652L193.984 109.788L172.771 131.002L649.635 607.865L670.848 586.652ZM649.635 586.651L649.635 586.652L670.848 607.865L670.848 607.865L649.635 586.651ZM674.384 590.187L670.848 586.651L649.635 607.865L653.171 611.4L674.384 590.187ZM703.171 618.974L674.384 590.187L653.171 611.4L681.958 640.187L703.171 618.974ZM706.365 622.887C705.448 621.499 704.383 620.186 703.171 618.974L681.958 640.187C681.723 639.953 681.512 639.693 681.328 639.414L706.365 622.887ZM709.055 645.02C711.63 637.761 710.756 629.538 706.364 622.886L681.329 639.415C680.431 638.056 680.272 636.423 680.781 634.988L709.055 645.02ZM703.171 654.33C705.869 651.633 707.842 648.436 709.054 645.02L680.781 634.988C681.03 634.288 681.434 633.641 681.958 633.117L703.171 654.33ZM654.605 702.897L703.171 654.33L681.958 633.117L633.392 681.683L654.605 702.897ZM619.25 702.897C629.013 712.66 644.842 712.66 654.605 702.897L633.392 681.683C635.345 679.731 638.51 679.731 640.463 681.683L619.25 702.897ZM110.063 193.71L619.25 702.897L640.463 681.683L131.276 172.496L110.063 193.71ZM100.204 183.851L110.063 193.71L131.276 172.496L121.417 162.638L100.204 183.851ZM117.742 186.583L118.577 186.077L103.044 160.411L102.208 160.917L117.742 186.583ZM19.297 52.8933L97.1422 181.516L122.808 165.983L44.9625 37.3601L19.297 52.8933ZM57.966 15.6989C33.4901 -0.446236 4.11507 27.8084 19.297 52.8933L44.9625 37.3601C45.0895 37.57 45.3379 38.2705 45.1905 39.1428C45.0707 39.8511 44.7647 40.2562 44.5567 40.4563C44.3488 40.6564 43.932 40.9464 43.2196 41.0385C42.3423 41.1519 41.652 40.8765 41.4471 40.7414L57.966 15.6989ZM182.21 97.6548L57.966 15.6989L41.4471 40.7414L165.692 122.697L182.21 97.6548ZM605.418 569.228L595.682 578.964L616.895 600.178L626.631 590.442L605.418 569.228ZM608.208 566.438L605.418 569.228L626.631 590.442L629.421 587.651L608.208 566.438ZM162.165 141.608L608.208 587.651L629.421 566.438L183.378 120.395L162.165 141.608ZM169.431 155.555L183.378 141.608L162.165 120.395L148.218 134.342L169.431 155.555ZM616.861 578.931L169.397 134.308L148.252 155.588L595.715 600.211L616.861 578.931ZM602.869 641.398L601.524 642.744L622.737 663.957L624.083 662.611L602.869 641.398ZM640.228 604.039L602.869 641.398L624.083 662.611L661.441 625.252L640.228 604.039ZM643.018 601.249L640.228 604.039L661.441 625.252L664.232 622.462L643.018 601.249ZM689.029 626.046L664.232 601.249L643.018 622.462L667.816 647.259L689.029 626.046ZM647.534 688.754L689.029 647.259L667.816 626.046L626.321 667.541L647.534 688.754ZM601.524 663.957L626.321 688.754L647.534 667.541L622.737 642.744L601.524 663.957ZM606.254 589.537L158.791 144.914L137.645 166.195L585.109 610.818L606.254 589.537ZM589.272 627.8L606.288 610.784L585.075 589.571L568.059 606.587L589.272 627.8ZM587.926 629.146L589.272 627.8L568.059 606.587L566.713 607.933L587.926 629.146ZM120.67 183.103L566.713 629.146L587.926 607.933L141.883 161.89L120.67 183.103ZM137.611 144.948L120.67 161.89L141.883 183.103L158.824 166.161L137.611 144.948ZM616.024 579.835L578.665 617.194L599.879 638.407L637.237 601.048L616.024 579.835ZM650.835 593.432L637.237 579.835L616.024 601.048L629.622 614.646L650.835 593.432ZM613.476 652.004L650.835 614.646L629.622 593.432L592.263 630.791L613.476 652.004ZM578.665 638.407L592.263 652.004L613.476 630.791L599.879 617.194L578.665 638.407Z" fill="#8DC1E2" mask="url(#path-9-inside-2)"/>
<path d="M881.684 320H868.832V312.002C865.141 315.192 861.29 317.676 857.279 319.453C853.269 321.23 848.917 322.119 844.223 322.119C835.108 322.119 827.862 318.61 822.484 311.592C817.152 304.574 814.486 294.844 814.486 282.402C814.486 275.931 815.398 270.166 817.221 265.107C819.089 260.049 821.596 255.742 824.74 252.188C827.839 248.724 831.439 246.081 835.541 244.258C839.688 242.435 843.972 241.523 848.393 241.523C852.403 241.523 855.958 241.956 859.057 242.822C862.156 243.643 865.414 244.941 868.832 246.719V213.633H881.684V320ZM868.832 301.201V257.383C865.368 255.833 862.27 254.762 859.535 254.17C856.801 253.577 853.816 253.281 850.58 253.281C843.38 253.281 837.774 255.788 833.764 260.801C829.753 265.814 827.748 272.923 827.748 282.129C827.748 291.198 829.298 298.102 832.396 302.842C835.495 307.536 840.463 309.883 847.299 309.883C850.945 309.883 854.636 309.085 858.373 307.49C862.11 305.85 865.596 303.753 868.832 301.201ZM970.893 283.154H914.633C914.633 287.848 915.339 291.95 916.752 295.459C918.165 298.923 920.102 301.771 922.562 304.004C924.932 306.191 927.735 307.832 930.971 308.926C934.252 310.02 937.852 310.566 941.771 310.566C946.967 310.566 952.185 309.541 957.426 307.49C962.712 305.394 966.472 303.343 968.705 301.338H969.389V315.352C965.059 317.174 960.639 318.701 956.127 319.932C951.615 321.162 946.876 321.777 941.908 321.777C929.239 321.777 919.35 318.359 912.24 311.523C905.131 304.642 901.576 294.889 901.576 282.266C901.576 269.779 904.971 259.867 911.762 252.529C918.598 245.192 927.576 241.523 938.695 241.523C948.995 241.523 956.924 244.531 962.484 250.547C968.09 256.562 970.893 265.107 970.893 276.182V283.154ZM958.383 273.311C958.337 266.566 956.628 261.348 953.256 257.656C949.929 253.965 944.848 252.119 938.012 252.119C931.13 252.119 925.639 254.147 921.537 258.203C917.481 262.259 915.18 267.295 914.633 273.311H958.383ZM1044.93 297.988C1044.93 304.961 1042.03 310.68 1036.24 315.146C1030.5 319.613 1022.64 321.846 1012.66 321.846C1007.01 321.846 1001.81 321.185 997.074 319.863C992.38 318.496 988.438 317.015 985.248 315.42V300.996H985.932C989.988 304.049 994.499 306.488 999.467 308.311C1004.43 310.088 1009.2 310.977 1013.75 310.977C1019.4 310.977 1023.83 310.065 1027.02 308.242C1030.21 306.419 1031.8 303.548 1031.8 299.629C1031.8 296.621 1030.93 294.342 1029.2 292.793C1027.47 291.243 1024.14 289.922 1019.22 288.828C1017.4 288.418 1015.01 287.939 1012.04 287.393C1009.13 286.846 1006.46 286.253 1004.05 285.615C997.348 283.838 992.585 281.24 989.76 277.822C986.98 274.359 985.59 270.12 985.59 265.107C985.59 261.963 986.228 259.001 987.504 256.221C988.826 253.441 990.808 250.957 993.451 248.77C996.003 246.628 999.239 244.941 1003.16 243.711C1007.12 242.435 1011.54 241.797 1016.42 241.797C1020.98 241.797 1025.58 242.367 1030.23 243.506C1034.92 244.6 1038.82 245.944 1041.92 247.539V261.279H1041.23C1037.95 258.864 1033.97 256.836 1029.27 255.195C1024.58 253.509 1019.97 252.666 1015.46 252.666C1010.77 252.666 1006.8 253.577 1003.57 255.4C1000.33 257.178 998.715 259.844 998.715 263.398C998.715 266.543 999.695 268.913 1001.65 270.508C1003.57 272.103 1006.67 273.402 1010.95 274.404C1013.32 274.951 1015.96 275.498 1018.88 276.045C1021.84 276.592 1024.3 277.093 1026.26 277.549C1032.23 278.916 1036.84 281.263 1040.07 284.59C1043.31 287.962 1044.93 292.428 1044.93 297.988ZM1077.19 230.859H1062.7V217.529H1077.19V230.859ZM1076.37 320H1063.52V243.643H1076.37V320ZM1163.73 311.318C1163.73 324.261 1160.79 333.763 1154.92 339.824C1149.04 345.885 1139.99 348.916 1127.78 348.916C1123.72 348.916 1119.76 348.62 1115.88 348.027C1112.05 347.48 1108.27 346.683 1104.54 345.635V332.51H1105.22C1107.32 333.33 1110.64 334.333 1115.2 335.518C1119.76 336.748 1124.31 337.363 1128.87 337.363C1133.25 337.363 1136.87 336.839 1139.74 335.791C1142.61 334.743 1144.84 333.285 1146.44 331.416C1148.03 329.639 1149.17 327.497 1149.86 324.99C1150.54 322.484 1150.88 319.681 1150.88 316.582V309.609C1147.01 312.708 1143.29 315.033 1139.74 316.582C1136.23 318.086 1131.74 318.838 1126.27 318.838C1117.16 318.838 1109.91 315.557 1104.54 308.994C1099.2 302.386 1096.54 293.089 1096.54 281.104C1096.54 274.541 1097.45 268.89 1099.27 264.15C1101.14 259.365 1103.67 255.241 1106.86 251.777C1109.82 248.542 1113.42 246.035 1117.66 244.258C1121.9 242.435 1126.11 241.523 1130.31 241.523C1134.73 241.523 1138.42 241.979 1141.38 242.891C1144.39 243.757 1147.56 245.101 1150.88 246.924L1151.7 243.643H1163.73V311.318ZM1150.88 299.014V257.383C1147.46 255.833 1144.27 254.74 1141.31 254.102C1138.4 253.418 1135.48 253.076 1132.56 253.076C1125.5 253.076 1119.94 255.446 1115.88 260.186C1111.83 264.925 1109.8 271.807 1109.8 280.83C1109.8 289.398 1111.3 295.892 1114.31 300.312C1117.32 304.733 1122.31 306.943 1129.28 306.943C1133.02 306.943 1136.76 306.237 1140.49 304.824C1144.27 303.366 1147.74 301.429 1150.88 299.014ZM1252.88 320H1240.02V276.523C1240.02 273.014 1239.82 269.733 1239.41 266.68C1239 263.581 1238.25 261.165 1237.15 259.434C1236.01 257.52 1234.37 256.107 1232.23 255.195C1230.09 254.238 1227.31 253.76 1223.89 253.76C1220.38 253.76 1216.71 254.626 1212.88 256.357C1209.06 258.089 1205.39 260.299 1201.88 262.988V320H1189.03V243.643H1201.88V252.119C1205.89 248.792 1210.04 246.195 1214.32 244.326C1218.6 242.458 1223 241.523 1227.51 241.523C1235.76 241.523 1242.05 244.007 1246.38 248.975C1250.71 253.942 1252.88 261.097 1252.88 270.439V320ZM1341.54 283.154H1285.28C1285.28 287.848 1285.98 291.95 1287.4 295.459C1288.81 298.923 1290.75 301.771 1293.21 304.004C1295.58 306.191 1298.38 307.832 1301.62 308.926C1304.9 310.02 1308.5 310.566 1312.42 310.566C1317.61 310.566 1322.83 309.541 1328.07 307.49C1333.36 305.394 1337.12 303.343 1339.35 301.338H1340.03V315.352C1335.7 317.174 1331.28 318.701 1326.77 319.932C1322.26 321.162 1317.52 321.777 1312.55 321.777C1299.88 321.777 1289.99 318.359 1282.88 311.523C1275.78 304.642 1272.22 294.889 1272.22 282.266C1272.22 269.779 1275.62 259.867 1282.41 252.529C1289.24 245.192 1298.22 241.523 1309.34 241.523C1319.64 241.523 1327.57 244.531 1333.13 250.547C1338.73 256.562 1341.54 265.107 1341.54 276.182V283.154ZM1329.03 273.311C1328.98 266.566 1327.27 261.348 1323.9 257.656C1320.57 253.965 1315.49 252.119 1308.66 252.119C1301.77 252.119 1296.28 254.147 1292.18 258.203C1288.13 262.259 1285.82 267.295 1285.28 273.311H1329.03ZM1422.95 320H1410.1V312.002C1406.41 315.192 1402.56 317.676 1398.55 319.453C1394.54 321.23 1390.19 322.119 1385.49 322.119C1376.38 322.119 1369.13 318.61 1363.75 311.592C1358.42 304.574 1355.76 294.844 1355.76 282.402C1355.76 275.931 1356.67 270.166 1358.49 265.107C1360.36 260.049 1362.87 255.742 1366.01 252.188C1369.11 248.724 1372.71 246.081 1376.81 244.258C1380.96 242.435 1385.24 241.523 1389.66 241.523C1393.67 241.523 1397.23 241.956 1400.33 242.822C1403.43 243.643 1406.68 244.941 1410.1 246.719V213.633H1422.95V320ZM1410.1 301.201V257.383C1406.64 255.833 1403.54 254.762 1400.8 254.17C1398.07 253.577 1395.09 253.281 1391.85 253.281C1384.65 253.281 1379.04 255.788 1375.03 260.801C1371.02 265.814 1369.02 272.923 1369.02 282.129C1369.02 291.198 1370.57 298.102 1373.67 302.842C1376.76 307.536 1381.73 309.883 1388.57 309.883C1392.21 309.883 1395.91 309.085 1399.64 307.49C1403.38 305.85 1406.87 303.753 1410.1 301.201ZM1564.66 281.24C1564.66 287.62 1563.75 293.363 1561.93 298.467C1560.15 303.571 1557.74 307.855 1554.68 311.318C1551.45 314.919 1547.89 317.63 1544.02 319.453C1540.14 321.23 1535.88 322.119 1531.23 322.119C1526.9 322.119 1523.12 321.595 1519.89 320.547C1516.65 319.544 1513.46 318.177 1510.32 316.445L1509.5 320H1497.46V213.633H1510.32V251.641C1513.92 248.678 1517.74 246.263 1521.8 244.395C1525.86 242.48 1530.41 241.523 1535.47 241.523C1544.5 241.523 1551.61 244.987 1556.8 251.914C1562.04 258.841 1564.66 268.617 1564.66 281.24ZM1551.4 281.582C1551.4 272.467 1549.9 265.563 1546.89 260.869C1543.88 256.13 1539.03 253.76 1532.33 253.76C1528.59 253.76 1524.81 254.58 1520.98 256.221C1517.15 257.816 1513.6 259.889 1510.32 262.441V306.191C1513.96 307.832 1517.08 308.971 1519.68 309.609C1522.32 310.247 1525.31 310.566 1528.64 310.566C1535.75 310.566 1541.31 308.242 1545.32 303.594C1549.37 298.9 1551.4 291.562 1551.4 281.582ZM1650.73 243.643L1606.16 348.164H1592.42L1606.63 316.309L1576.21 243.643H1590.16L1613.61 300.244L1637.26 243.643H1650.73Z" fill="#153951"/>
<path d="M868.598 538.273C868.598 545.5 867.23 551.88 864.496 557.414C861.762 562.948 858.083 567.505 853.461 571.086C847.992 575.383 841.97 578.443 835.395 580.266C828.884 582.089 820.583 583 810.492 583H758.93V437.59H801.996C812.608 437.59 820.551 437.98 825.824 438.762C831.098 439.543 836.143 441.171 840.961 443.645C846.299 446.444 850.173 450.057 852.582 454.484C854.991 458.846 856.195 464.087 856.195 470.207C856.195 477.108 854.438 483 850.922 487.883C847.406 492.701 842.719 496.574 836.859 499.504V500.285C846.69 502.303 854.438 506.633 860.102 513.273C865.766 519.849 868.598 528.182 868.598 538.273ZM836.078 472.746C836.078 469.23 835.492 466.268 834.32 463.859C833.148 461.451 831.26 459.497 828.656 458C825.596 456.242 821.885 455.168 817.523 454.777C813.161 454.322 807.758 454.094 801.312 454.094H778.266V496.086H803.266C809.32 496.086 814.138 495.793 817.719 495.207C821.299 494.556 824.62 493.254 827.68 491.301C830.74 489.348 832.888 486.841 834.125 483.781C835.427 480.656 836.078 476.978 836.078 472.746ZM848.48 539.055C848.48 533.195 847.602 528.54 845.844 525.09C844.086 521.639 840.896 518.71 836.273 516.301C833.148 514.673 829.34 513.632 824.848 513.176C820.421 512.655 815.017 512.395 808.637 512.395H778.266V566.496H803.852C812.315 566.496 819.249 566.073 824.652 565.227C830.056 564.315 834.483 562.688 837.934 560.344C841.579 557.805 844.249 554.908 845.941 551.652C847.634 548.397 848.48 544.198 848.48 539.055ZM1010.69 583H990.082L975.824 542.473H912.934L898.676 583H879.047L931.977 437.59H957.758L1010.69 583ZM969.867 525.871L944.379 454.484L918.793 525.871H969.867ZM1153.07 583H1127.97L1079.34 525.188H1052.09V583H1032.76V437.59H1073.48C1082.27 437.59 1089.59 438.176 1095.45 439.348C1101.31 440.454 1106.59 442.473 1111.27 445.402C1116.55 448.723 1120.65 452.922 1123.58 458C1126.57 463.013 1128.07 469.393 1128.07 477.141C1128.07 487.622 1125.43 496.411 1120.16 503.508C1114.89 510.539 1107.63 515.845 1098.38 519.426L1153.07 583ZM1107.86 478.508C1107.86 474.341 1107.11 470.663 1105.61 467.473C1104.18 464.217 1101.77 461.483 1098.38 459.27C1095.58 457.382 1092.26 456.079 1088.42 455.363C1084.58 454.582 1080.06 454.191 1074.85 454.191H1052.09V509.074H1071.62C1077.74 509.074 1083.08 508.553 1087.64 507.512C1092.2 506.405 1096.07 504.387 1099.26 501.457C1102.19 498.723 1104.34 495.598 1105.71 492.082C1107.14 488.501 1107.86 483.977 1107.86 478.508ZM1281.49 538.273C1281.49 545.5 1280.12 551.88 1277.39 557.414C1274.65 562.948 1270.97 567.505 1266.35 571.086C1260.88 575.383 1254.86 578.443 1248.29 580.266C1241.77 582.089 1233.47 583 1223.38 583H1171.82V437.59H1214.89C1225.5 437.59 1233.44 437.98 1238.71 438.762C1243.99 439.543 1249.03 441.171 1253.85 443.645C1259.19 446.444 1263.06 450.057 1265.47 454.484C1267.88 458.846 1269.09 464.087 1269.09 470.207C1269.09 477.108 1267.33 483 1263.81 487.883C1260.3 492.701 1255.61 496.574 1249.75 499.504V500.285C1259.58 502.303 1267.33 506.633 1272.99 513.273C1278.66 519.849 1281.49 528.182 1281.49 538.273ZM1248.97 472.746C1248.97 469.23 1248.38 466.268 1247.21 463.859C1246.04 461.451 1244.15 459.497 1241.55 458C1238.49 456.242 1234.78 455.168 1230.41 454.777C1226.05 454.322 1220.65 454.094 1214.2 454.094H1191.16V496.086H1216.16C1222.21 496.086 1227.03 495.793 1230.61 495.207C1234.19 494.556 1237.51 493.254 1240.57 491.301C1243.63 489.348 1245.78 486.841 1247.02 483.781C1248.32 480.656 1248.97 476.978 1248.97 472.746ZM1261.37 539.055C1261.37 533.195 1260.49 528.54 1258.73 525.09C1256.98 521.639 1253.79 518.71 1249.16 516.301C1246.04 514.673 1242.23 513.632 1237.74 513.176C1233.31 512.655 1227.91 512.395 1221.53 512.395H1191.16V566.496H1216.74C1225.21 566.496 1232.14 566.073 1237.54 565.227C1242.95 564.315 1247.37 562.688 1250.82 560.344C1254.47 557.805 1257.14 554.908 1258.83 551.652C1260.52 548.397 1261.37 544.198 1261.37 539.055ZM1417.33 454.289C1423.25 460.799 1427.78 468.775 1430.9 478.215C1434.09 487.655 1435.69 498.365 1435.69 510.344C1435.69 522.323 1434.06 533.065 1430.8 542.57C1427.61 552.01 1423.12 559.888 1417.33 566.203C1411.34 572.779 1404.24 577.727 1396.04 581.047C1387.9 584.367 1378.59 586.027 1368.11 586.027C1357.89 586.027 1348.58 584.335 1340.18 580.949C1331.85 577.564 1324.75 572.648 1318.89 566.203C1313.03 559.758 1308.51 551.848 1305.32 542.473C1302.19 533.098 1300.63 522.388 1300.63 510.344C1300.63 498.495 1302.19 487.883 1305.32 478.508C1308.44 469.068 1313 460.995 1318.99 454.289C1324.72 447.909 1331.81 443.026 1340.28 439.641C1348.81 436.255 1358.08 434.562 1368.11 434.562C1378.53 434.562 1387.87 436.288 1396.14 439.738C1404.47 443.124 1411.53 447.974 1417.33 454.289ZM1415.57 510.344C1415.57 491.464 1411.34 476.913 1402.88 466.691C1394.41 456.405 1382.86 451.262 1368.21 451.262C1353.43 451.262 1341.81 456.405 1333.34 466.691C1324.95 476.913 1320.75 491.464 1320.75 510.344C1320.75 529.419 1325.04 544.035 1333.64 554.191C1342.23 564.283 1353.75 569.328 1368.21 569.328C1382.66 569.328 1394.15 564.283 1402.68 554.191C1411.27 544.035 1415.57 529.419 1415.57 510.344ZM1586.66 583H1561.57L1512.93 525.188H1485.69V583H1466.35V437.59H1507.07C1515.86 437.59 1523.19 438.176 1529.05 439.348C1534.91 440.454 1540.18 442.473 1544.87 445.402C1550.14 448.723 1554.24 452.922 1557.17 458C1560.17 463.013 1561.66 469.393 1561.66 477.141C1561.66 487.622 1559.03 496.411 1553.75 503.508C1548.48 510.539 1541.22 515.845 1531.98 519.426L1586.66 583ZM1541.45 478.508C1541.45 474.341 1540.7 470.663 1539.2 467.473C1537.77 464.217 1535.36 461.483 1531.98 459.27C1529.18 457.382 1525.86 456.079 1522.02 455.363C1518.17 454.582 1513.65 454.191 1508.44 454.191H1485.69V509.074H1505.22C1511.34 509.074 1516.68 508.553 1521.23 507.512C1525.79 506.405 1529.67 504.387 1532.86 501.457C1535.79 498.723 1537.93 495.598 1539.3 492.082C1540.73 488.501 1541.45 483.977 1541.45 478.508ZM1720.06 583H1699.46L1685.2 542.473H1622.31L1608.05 583H1588.42L1641.35 437.59H1667.13L1720.06 583ZM1679.24 525.871L1653.75 454.484L1628.17 525.871H1679.24Z" fill="#8DC1E2"/>
</svg>
