<?xml version="1.0" encoding="UTF-8"?>
<svg width="80px" height="100px" viewBox="0 0 80 100" version="1.1" xmlns="http://www.w3.org/2000/svg" xmlns:xlink="http://www.w3.org/1999/xlink">
    <title>MyGal</title>
    <g id="Page-1" stroke="none" stroke-width="1" fill="none" fill-rule="evenodd">
        <g id="2705723" transform="translate(-43.000000, -35.000000)">
            <g id="MyGal" transform="translate(43.131954, 35.419235)">
                <path d="M20.2020456,38.3567645 C20.2020456,41.8207645 17.5160456,44.6297645 14.2020456,44.6297645 C10.8890456,44.6297645 8.20204561,41.8207645 8.20204561,38.3567645 C8.20204561,34.8917645 10.8890456,32.0837645 14.2020456,32.0837645 C17.5160456,32.0837645 20.2020456,34.8917645 20.2020456,38.3567645" id="Fill-4" fill="#F9B28F"></path>
                <path d="M65.7020456,38.3567645 C65.7020456,41.8207645 63.0160456,44.6297645 59.7020456,44.6297645 C56.3890456,44.6297645 53.7020456,41.8207645 53.7020456,38.3567645 C53.7020456,34.8917645 56.3890456,32.0837645 59.7020456,32.0837645 C63.0160456,32.0837645 65.7020456,34.8917645 65.7020456,38.3567645" id="Fill-5" fill="#F9B28F"></path>
                <path d="M29.4080456,69.3797645 C29.4080456,69.3797645 16.3250456,70.3797645 15.1580456,77.2127645 C14.1070456,83.3707645 12.5540456,93.5457645 12.5540456,93.5457645 C12.5540456,93.5457645 37.7000456,105.045765 60.9300456,93.5457645 L58.5760456,77.0497645 C58.5760456,77.0497645 55.8250456,69.7127645 45.4080456,69.2957645 L29.4080456,69.3797645" id="Fill-6" fill="#8DC1E2"></path>
                <path d="M40.5750456,58.7957645 C40.2220456,58.7957645 41.9910456,65.9277645 41.0750456,66.6947645 C40.1580456,67.4627645 47.2830456,67.0787645 50.1790456,67.0617645 C53.0750456,67.0457645 57.4090456,68.6297645 58.9920456,66.1297645 C60.5750456,63.6297645 57.2420456,58.7127645 57.0750456,55.2957645 C56.9090456,51.8797645 56.7420456,47.7997645 56.7420456,47.7997645 C56.7420456,47.7997645 43.8250456,58.7957645 40.5750456,58.7957645" id="Fill-7" fill="#F79C0B"></path>
                <path d="M29.4080456,69.3797645 C29.4080456,69.3797645 31.4910456,71.9627645 37.1580456,71.9627645 C42.8260456,71.9627645 45.4080456,69.2957645 45.4080456,69.2957645 C45.4080456,69.2957645 43.3960456,67.3957645 42.0940456,64.2657645 C38.8240456,65.7187645 35.1610456,66.5297645 31.4850456,66.6947645 C30.9620456,67.7037645 30.2850456,68.6497645 29.4080456,69.3797645" id="Fill-8" fill="#FCCFB6"></path>
                <path d="M33.2320456,60.1017645 C33.2320456,60.1017645 33.0500456,63.6767645 31.4850456,66.6947645 C35.1610456,66.5297645 38.8240456,65.7187645 42.0940456,64.2657645 C41.5730456,63.0127645 41.1620456,61.5677645 41.0460456,59.9597645 C41.0460456,59.9597645 36.7890456,60.6707645 33.2320456,60.1017645" id="Fill-9" fill="#F9B28F"></path>
                <path d="M58.4090456,36.6727645 C58.4090456,49.7887645 48.7270456,60.4227645 36.7830456,60.4227645 C24.8400456,60.4227645 15.1580456,49.7887645 15.1580456,36.6727645 C15.1580456,23.5557645 21.0210456,9.55576452 36.7830456,9.54575805 C54.5330456,9.53476452 58.4090456,23.5557645 58.4090456,36.6727645" id="Fill-10" fill="#FCCEB6"></path>
                <path d="M31.2700456,44.9257645 C30.6820456,47.0397645 27.6730456,48.0507645 24.5490456,47.1827645 C21.4250456,46.3137645 19.3680456,43.8957645 19.9560456,41.7807645 C20.5440456,39.6657645 23.5530456,38.6557645 26.6780456,39.5237645 C29.8020456,40.3927645 31.8580456,42.8107645 31.2700456,44.9257645" id="Fill-11" fill="#F9B28F"></path>
                <path d="M54.0940456,42.3207645 C54.4790456,44.4807645 52.2040456,46.6947645 49.0130456,47.2657645 C45.8210456,47.8357645 42.9200456,46.5467645 42.5330456,44.3857645 C42.1480456,42.2247645 44.4230456,40.0117645 47.6150456,39.4407645 C50.8060456,38.8707645 53.7070456,40.1597645 54.0940456,42.3207645" id="Fill-12" fill="#F9B28F"></path>
                <path d="M9.98604561,38.5517645 C10.0000456,38.5537645 10.0130456,38.5557645 10.0270456,38.5577645 C10.1170456,38.5707645 10.1810456,38.5467645 10.2350456,38.4727645 C10.7440456,37.7687645 11.2820456,37.3397645 12.1370456,37.1087645 C13.4340456,36.7567645 14.2080456,37.7377645 14.8060456,38.7037645 C14.9620456,38.9537645 15.4070456,38.8687645 15.3870456,38.5457645 C15.3070456,37.2037645 13.9420456,36.3377645 12.7040456,36.2487645 C12.0010456,36.1967645 11.2470456,36.5457645 10.7010456,36.9537645 C10.5550456,37.0627645 9.84504561,38.2287645 9.98604561,38.2077645 C9.81504561,38.2337645 9.81504561,38.5257645 9.98604561,38.5517645" id="Fill-13" fill="#000000"></path>
                <path d="M12.0740456,40.1017645 C12.4940456,39.9137645 12.9010456,39.6477645 13.2890456,39.3997645 C13.7750456,39.0897645 14.3570456,39.1877645 14.9080456,39.1897645 C15.4160456,39.1917645 15.4160456,38.4007645 14.9080456,38.4027645 C14.3250456,38.4047645 13.7610456,38.3627645 13.2160456,38.5937645 C12.8990456,38.7267645 12.5950456,38.9867645 12.3300456,39.2037645 C12.0960456,39.3957645 12.0720456,39.6517645 11.8780456,39.8487645 C11.7410456,39.9867645 11.9130456,40.1737645 12.0740456,40.1017645" id="Fill-14" fill="#000000"></path>
                <path d="M63.4980456,38.2077645 C63.6390456,38.2287645 62.9300456,37.0627645 62.7830456,36.9537645 C62.1790456,36.5027645 61.5260456,36.2977645 60.7800456,36.2487645 C59.5490456,36.1667645 58.1700456,37.3307645 58.0970456,38.5457645 C58.0770456,38.8687645 58.5220456,38.9537645 58.6780456,38.7037645 C59.1970456,37.8657645 59.7090456,37.1317645 60.7800456,37.0427645 C61.8250456,36.9567645 62.6830456,37.6897645 63.2490456,38.4727645 C63.3030456,38.5467645 63.3680456,38.5707645 63.4570456,38.5577645 C63.4710456,38.5557645 63.4840456,38.5537645 63.4980456,38.5517645 C63.6690456,38.5257645 63.6690456,38.2337645 63.4980456,38.2077645" id="Fill-15" fill="#000000"></path>
                <path d="M61.6060456,39.8487645 C61.4510456,39.6917645 61.4210456,39.4547645 61.2590456,39.2887645 C61.0230456,39.0467645 60.6990456,38.8587645 60.4170456,38.6757645 C59.8740456,38.3227645 59.1930456,38.4047645 58.5760456,38.4027645 C58.0680456,38.4007645 58.0680456,39.1917645 58.5760456,39.1897645 C59.0550456,39.1877645 59.6080456,39.0937645 60.0460456,39.3117645 C60.5150456,39.5457645 60.9310456,39.8877645 61.4100456,40.1017645 C61.5710456,40.1737645 61.7430456,39.9867645 61.6060456,39.8487645" id="Fill-16" fill="#000000"></path>
                <path d="M15.7780456,44.4167645 C13.7210456,44.9477645 8.61904561,44.0107645 8.20204561,38.3567645 C8.74604561,31.6667645 15.4040456,32.0837645 15.4040456,32.0837645 C21.4830456,26.7877645 21.1580456,14.8797645 21.1580456,14.8797645 L20.9080456,12.4837645 C20.9080456,12.4837645 19.0960456,3.29576452 17.4080456,3.85876452 C15.7210456,4.42076452 18.3460456,12.3587645 18.3460456,12.3587645 C18.3460456,12.3587645 13.5330456,6.60876452 12.4080456,7.98376452 C11.2830456,9.35876452 18.0960456,13.5457645 18.0960456,13.5457645 C6.40804561,12.0457645 2.47104561,21.9207645 3.47104561,25.0457645 C4.47104561,28.1707645 9.09604561,31.7957645 4.34604561,35.7957645 C-0.403954391,39.7957645 -0.841954391,45.1087645 1.03304561,47.5457645 C2.90804561,49.9837645 6.22104561,51.2957645 5.59604561,55.2337645 C4.97104561,59.1707645 3.03304561,63.6087645 5.03304561,65.6707645 C5.80704561,66.4687645 10.2060456,67.1177645 12.5540456,67.0617645 C13.8380456,67.0317645 14.2020456,62.2957645 14.2020456,62.2957645 C15.2620456,62.2047645 14.4430456,66.7867645 15.5020456,66.6947645 C16.3810456,66.6197645 17.7610456,66.7187645 19.0930456,66.8337645 C21.4400456,59.9287645 16.7560456,51.8917645 15.7780456,44.4167645" id="Fill-17" fill="#FEB01B"></path>
                <path d="M30.8950456,59.5237645 C19.9860456,55.5417645 16.2830456,44.2337645 16.2830456,44.2337645 C16.1500456,44.3077645 15.9720456,44.3667645 15.7780456,44.4167645 C16.7560456,51.8917645 21.4400456,59.9287645 19.0930456,66.8337645 C20.3580456,66.9427645 21.5800456,67.0657645 22.2830456,67.0657645 C28.0960456,67.0657645 31.1950456,67.3037645 31.4850456,66.9207645 C33.1160456,64.7637645 33.2320456,60.1017645 33.2320456,60.1017645 L30.8950456,59.5237645" id="Fill-18" fill="#F79C0B"></path>
                <path d="M13.5960456,42.4927645 C11.9180456,42.4457645 11.1660456,44.2147645 10.7830456,45.6297645 C10.3030456,47.4017645 10.8110456,49.5057645 12.0090456,50.8897645 C14.1440456,53.3567645 17.7240456,54.4037645 20.2540456,51.8687645 C20.7070456,51.4137645 20.0020456,50.7087645 19.5510456,51.1647645 C17.7500456,52.9887645 15.2800456,52.5587645 13.4120456,51.0667645 C11.1150456,49.2327645 10.3210456,44.1507645 13.6430456,42.8427645 C13.8250456,42.7707645 13.8070456,42.4987645 13.5960456,42.4927645" id="Fill-19" fill="#FEB01B"></path>
                <path d="M36.8590456,71.9627645 C36.9420456,80.8607645 37.0250456,89.7587645 37.1090456,98.6577645 C37.1120456,99.0437645 37.7120456,99.0447645 37.7080456,98.6577645 C37.6250456,89.7587645 37.5420456,80.8607645 37.4580456,71.9627645 C37.4550456,71.5757645 36.8550456,71.5757645 36.8590456,71.9627645" id="Fill-20" fill="#000000"></path>
                <path d="M19.7660456,95.9687645 C19.9140456,93.2167645 20.0610456,90.4647645 20.2080456,87.7127645 C20.2290456,87.3267645 19.6290456,87.3287645 19.6090456,87.7127645 C19.4610456,90.4647645 19.3140456,93.2167645 19.1670456,95.9687645 C19.1460456,96.3557645 19.7460456,96.3537645 19.7660456,95.9687645" id="Fill-21" fill="#000000"></path>
                <path d="M54.7310456,95.9727645 C54.6320456,93.2177645 54.5330456,90.4637645 54.4340456,87.7097645 C54.4210456,87.3237645 53.8210456,87.3227645 53.8350456,87.7097645 C53.9330456,90.4637645 54.0320456,93.2177645 54.1310456,95.9727645 C54.1450456,96.3577645 54.7450456,96.3597645 54.7310456,95.9727645" id="Fill-22" fill="#000000"></path>
                <path d="M40.1590456,78.9707645 C40.1590456,79.5247645 39.7980456,79.9737645 39.3520456,79.9737645 C38.9060456,79.9737645 38.5450456,79.5247645 38.5450456,78.9707645 C38.5450456,78.4167645 38.9060456,77.9677645 39.3520456,77.9677645 C39.7980456,77.9677645 40.1590456,78.4167645 40.1590456,78.9707645" id="Fill-23" fill="#E95F33"></path>
                <path d="M40.5280456,94.9697645 C40.5280456,95.5227645 40.1660456,95.9727645 39.7200456,95.9727645 C39.2750456,95.9727645 38.9130456,95.5227645 38.9130456,94.9697645 C38.9130456,94.4147645 39.2750456,93.9667645 39.7200456,93.9667645 C40.1660456,93.9667645 40.5280456,94.4147645 40.5280456,94.9697645" id="Fill-24" fill="#E95F33"></path>
                <path d="M40.1590456,87.1317645 C40.1590456,87.6847645 39.7980456,88.1347645 39.3520456,88.1347645 C38.9060456,88.1347645 38.5450456,87.6847645 38.5450456,87.1317645 C38.5450456,86.5777645 38.9060456,86.1287645 39.3520456,86.1287645 C39.7980456,86.1287645 40.1590456,86.5777645 40.1590456,87.1317645" id="Fill-25" fill="#E95F33"></path>
                <path d="M31.2790456,67.0617645 C31.2790456,67.0617645 27.8130456,67.6137645 26.9070456,68.9217645 C26.0010456,70.2287645 26.4920456,78.8177645 28.8250456,79.9737645 C31.1580456,81.1297645 36.7420456,71.9547645 36.7420456,71.9547645 C36.7420456,71.9547645 41.4080456,78.0617645 44.4080456,78.9707645 C47.4080456,79.8797645 48.7410456,69.1637645 47.5740456,68.1147645 C46.4070456,67.0647645 43.3610456,66.6947645 43.3610456,66.6947645 L45.4080456,69.2957645 C45.4080456,69.2957645 42.0940456,71.4627645 36.7420456,71.4627645 C31.9660456,71.4627645 29.8370456,69.7947645 29.8370456,69.7947645 L31.2790456,67.0617645" id="Fill-26" fill="#2C2945"></path>
                <path d="M33.9940456,43.2907645 C34.4280456,44.6577645 35.3800456,45.8237645 36.7750456,46.3057645 C38.1080456,46.7667645 40.1260456,46.8477645 41.0060456,45.5407645 C41.3080456,45.0917645 40.7320456,44.6167645 40.3070456,44.8417645 C39.2150456,45.4187645 38.3040456,45.6537645 37.0530456,45.2967645 C35.9330456,44.9777645 35.0310456,44.0817645 34.4830456,43.0857645 C34.3380456,42.8207645 33.9030456,43.0007645 33.9940456,43.2907645" id="Fill-27" fill="#000000"></path>
                <path d="M37.7980456,42.4447645 C38.8910456,42.1177645 42.0100456,39.5307645 40.2700456,38.2517645 C39.4780456,37.6697645 39.6790456,37.7417645 38.7020456,37.7617645 C36.5640456,37.8037645 37.0110456,35.5227645 36.9950456,34.3197645 C36.9560456,31.5247645 37.0010456,28.7207645 37.3730456,25.9477645 C37.4380456,25.4587645 36.5850456,25.3447645 36.5120456,25.8307645 C36.1420456,28.2837645 36.1090456,30.7457645 36.0970456,33.2217645 C36.0880456,34.9887645 35.7870456,37.0657645 36.6660456,38.6657645 C36.7410456,38.8027645 36.8970456,38.8867645 37.0510456,38.8867645 C38.9660456,38.8857645 39.1120456,40.9387645 37.6030456,41.9817645 C37.3760456,42.1397645 37.5100456,42.5317645 37.7980456,42.4447645" id="Fill-28" fill="#000000"></path>
                <path d="M20.4010456,31.4347645 C21.7050456,31.0817645 22.6620456,29.9667645 23.9140456,29.4447645 C25.7340456,28.6847645 27.2780456,27.7257645 29.3450456,27.7127645 C29.7290456,27.7107645 29.9550456,27.1067645 29.5550456,26.9357645 C28.1470456,26.3327645 26.2360456,27.0757645 24.9150456,27.6987645 C23.0940456,28.5577645 21.6780456,29.7627645 20.1980456,31.0857645 C20.0370456,31.2287645 20.2060456,31.4877645 20.4010456,31.4347645" id="Fill-29" fill="#000000"></path>
                <path d="M44.3450456,26.3897645 C45.7880456,26.4847645 47.6470456,27.8957645 48.8240456,28.6737645 C50.0610456,29.4907645 50.8690456,30.6787645 51.9990456,31.5787645 C52.3540456,31.8627645 52.8340456,31.5187645 52.6290456,31.0937645 C51.9790456,29.7527645 50.4930456,28.7077645 49.2760456,27.9017645 C48.0740456,27.1057645 45.8540456,25.7277645 44.3450456,25.8277645 C43.9830456,25.8517645 43.9830456,26.3657645 44.3450456,26.3897645" id="Fill-30" fill="#000000"></path>
                <path d="M28.0950456,35.5087645 C28.0950456,36.6617645 27.3670456,37.5957645 26.4700456,37.5957645 C25.5730456,37.5957645 24.8450456,36.6617645 24.8450456,35.5087645 C24.8450456,34.3557645 25.5730456,33.4207645 26.4700456,33.4207645 C27.3670456,33.4207645 28.0950456,34.3557645 28.0950456,35.5087645" id="Fill-31" fill="#000000"></path>
                <path d="M49.5970456,35.5087645 C49.5970456,36.6617645 48.8690456,37.5957645 47.9720456,37.5957645 C47.0740456,37.5957645 46.3460456,36.6617645 46.3460456,35.5087645 C46.3460456,34.3557645 47.0740456,33.4207645 47.9720456,33.4207645 C48.8690456,33.4207645 49.5970456,34.3557645 49.5970456,35.5087645" id="Fill-32" fill="#000000"></path>
                <path d="M24.8450456,27.8607645 C19.8140456,27.8607645 15.7200456,31.9537645 15.7200456,36.9857645 C15.7200456,42.0167645 19.8140456,46.1097645 24.8450456,46.1097645 C29.8770456,46.1097645 33.9700456,42.0167645 33.9700456,36.9857645 C33.9700456,31.9537645 29.8770456,27.8607645 24.8450456,27.8607645 Z M24.8450456,47.1097645 C19.2620456,47.1097645 14.7200456,42.5677645 14.7200456,36.9857645 C14.7200456,31.4027645 19.2620456,26.8607645 24.8450456,26.8607645 C30.4280456,26.8607645 34.9700456,31.4027645 34.9700456,36.9857645 C34.9700456,42.5677645 30.4280456,47.1097645 24.8450456,47.1097645 L24.8450456,47.1097645 Z" id="Fill-33" fill="#2C2945"></path>
                <path d="M49.7180456,27.8607645 C44.6860456,27.8607645 40.5930456,31.9537645 40.5930456,36.9857645 C40.5930456,42.0167645 44.6860456,46.1097645 49.7180456,46.1097645 C54.7490456,46.1097645 58.8430456,42.0167645 58.8430456,36.9857645 C58.8430456,31.9537645 54.7490456,27.8607645 49.7180456,27.8607645 Z M49.7180456,47.1097645 C44.1350456,47.1097645 39.5930456,42.5677645 39.5930456,36.9857645 C39.5930456,31.4027645 44.1350456,26.8607645 49.7180456,26.8607645 C55.3010456,26.8607645 59.8430456,31.4027645 59.8430456,36.9857645 C59.8430456,42.5677645 55.3010456,47.1097645 49.7180456,47.1097645 L49.7180456,47.1097645 Z" id="Fill-34" fill="#2C2945"></path>
                <path d="M34.6270456,37.2867645 L34.0530456,36.6857645 C34.1360456,36.6077645 36.1140456,34.7647645 40.1220456,36.2777645 L39.8290456,37.0547645 C36.3410456,35.7377645 34.6950456,37.2227645 34.6270456,37.2867645" id="Fill-35" fill="#2C2945"></path>
                <path d="M34.2520456,6.21276452 C29.2200456,6.65376452 24.3110456,8.56676452 20.9450456,10.1757645 C20.8200456,10.4517645 20.6980456,10.7287645 20.5900456,11.0177645 C20.5900456,11.0177645 20.7440456,12.9427645 21.1180456,16.7447645 C21.1180456,16.7447645 28.6580456,9.54576452 40.1220456,12.9207645 C43.3280456,13.6807645 45.2490456,15.2347645 45.4160456,17.5247645 C47.1060456,12.1007645 42.1940456,5.51676452 34.2520456,6.21276452" id="Fill-36" fill="#F79C0B"></path>
                <path d="M75.1590456,47.7997645 C77.3450456,43.8787645 81.0400456,38.5667645 75.6240456,31.6507645 C70.2070456,24.7337645 68.0340456,28.7027645 67.3250456,19.7127645 C66.7230456,12.0767645 61.6990456,3.75476452 52.2820456,1.17076452 C43.1030456,-1.34723548 25.7580456,-0.426235485 20.9450456,10.1757645 C24.3110456,8.56676452 29.2200456,6.65376452 34.2520456,6.21276452 C42.1940456,5.51676452 47.1060456,12.1007645 45.4160456,17.5247645 C45.4690456,18.2507645 45.3490456,19.0487645 45.0330456,19.9207645 C43.7000456,23.6017645 46.2060456,28.4067645 53.7020456,34.0797645 C60.3690456,39.1247645 57.4130456,42.3157645 54.9970456,49.4817645 C52.5800456,56.6487645 52.2460456,59.3917645 57.0240456,63.3277645 C58.8240456,64.8097645 58.4090456,68.1147645 58.4090456,68.1147645 C58.4090456,68.1147645 63.2530456,67.8007645 65.4710456,68.1147645 C66.3580456,68.2397645 64.6500456,64.1827645 65.7020456,64.2657645 C66.4900456,64.3277645 67.2220456,68.1017645 68.0490456,68.1147645 C70.6580456,68.1537645 74.0110456,68.3877645 76.1770456,67.7757645 C78.4342348,67.1387645 76.9510456,60.0867645 76.0340456,57.6707645 C75.1170456,55.2537645 73.8270456,50.1867645 75.1590456,47.7997645" id="Fill-37" fill="#FEB01B"></path>
                <path d="M39.2960456,98.6577645 C39.4440456,95.9057645 39.5910456,93.1537645 39.7380456,90.4017645 C39.7590456,90.0147645 39.1590456,90.0167645 39.1380456,90.4017645 C38.9910456,93.1537645 38.8440456,95.9057645 38.6970456,98.6577645 C38.6760456,99.0437645 39.2760456,99.0417645 39.2960456,98.6577645" id="Fill-38" fill="#000000"></path>
                <path d="M39.6650456,98.6577645 C39.5670456,95.9027645 39.4680456,93.1487645 39.3690456,90.3947645 C39.3550456,90.0087645 38.7550456,90.0077645 38.7690456,90.3947645 C38.8680456,93.1487645 38.9670456,95.9027645 39.0660456,98.6577645 C39.0790456,99.0427645 39.6790456,99.0447645 39.6650456,98.6577645" id="Fill-39" fill="#000000"></path>
            </g>
        </g>
    </g>
</svg>