<svg width="720" height="700" viewBox="0 0 720 700" fill="none" xmlns="http://www.w3.org/2000/svg">
<path d="M612.173 384.388C612.173 521.716 500.846 633.043 363.518 633.043C226.191 633.043 114.864 521.716 114.864 384.388C114.864 247.06 226.191 135.734 363.518 135.734C500.846 135.734 612.173 247.06 612.173 384.388Z" stroke="#153951" stroke-width="25"/>
<rect x="379.641" y="293.225" width="240.404" height="79.5012" transform="rotate(-45 379.641 293.225)" fill="white"/>
<rect x="98.3887" y="569.349" width="304.831" height="79.5012" transform="rotate(-45 98.3887 569.349)" fill="white"/>
<path d="M160.478 407.678C159.638 407.678 158.984 407.398 158.518 406.838C158.144 406.185 157.958 405.438 157.958 404.598C158.051 403.198 158.331 402.358 158.798 402.078C159.264 401.798 160.151 401.658 161.458 401.658C164.164 401.658 166.171 401.192 167.478 400.258C168.784 399.232 169.578 398.018 169.858 396.618C170.231 395.125 170.464 393.212 170.558 390.878V335.298C170.464 332.965 170.231 331.098 169.858 329.698C169.578 328.205 168.784 326.992 167.478 326.058C166.171 325.032 164.164 324.518 161.458 324.518H160.618C159.684 324.518 159.031 324.378 158.658 324.098C158.284 323.725 158.051 322.885 157.958 321.578C157.958 320.738 158.144 320.038 158.518 319.478C158.984 318.825 159.638 318.498 160.478 318.498C166.544 318.778 172.051 318.918 176.998 318.918H196.738C201.871 318.918 206.024 319.292 209.198 320.038C212.371 320.785 215.218 321.952 217.738 323.538C220.164 325.125 222.078 327.318 223.478 330.118C224.878 332.825 225.578 335.812 225.578 339.078C225.578 344.865 223.664 349.485 219.838 352.938C216.104 356.298 211.718 358.585 206.678 359.798V360.218C211.531 360.218 215.918 361.198 219.838 363.158C223.851 365.025 226.931 367.592 229.078 370.858C231.318 374.032 232.438 377.485 232.438 381.218C232.438 387.565 230.478 392.698 226.558 396.618C222.731 400.538 217.878 403.338 211.998 405.018C206.211 406.605 200.191 407.398 193.938 407.398L177.138 407.258C172.098 407.258 166.544 407.398 160.478 407.678ZM190.298 357.418C194.031 357.418 197.251 357.138 199.958 356.578C202.758 356.018 205.231 354.525 207.378 352.098C209.524 349.672 210.598 345.892 210.598 340.758C210.598 329.652 205.138 324.098 194.218 324.098H184.418V357.418H190.298ZM194.498 401.798C201.404 401.705 206.911 400.025 211.018 396.758C215.218 393.398 217.318 387.938 217.318 380.378C216.851 375.338 214.471 371.185 210.178 367.918C205.978 364.652 199.304 363.018 190.158 363.018H184.418V390.878C184.418 394.052 184.698 396.432 185.258 398.018C185.911 399.512 186.891 400.538 188.198 401.098C189.598 401.565 191.698 401.798 194.498 401.798Z" fill="#153951"/>
<path d="M489.912 407.678C489.165 407.678 488.559 407.398 488.092 406.838C487.719 406.185 487.532 405.438 487.532 404.598C487.625 403.198 487.905 402.358 488.372 402.078C488.839 401.798 489.725 401.658 491.032 401.658C493.739 401.658 495.745 401.192 497.052 400.258C498.359 399.232 499.152 398.018 499.432 396.618C499.805 395.125 500.039 393.212 500.132 390.878V335.298C500.039 332.965 499.805 331.098 499.432 329.698C499.152 328.205 498.359 326.992 497.052 326.058C495.745 325.032 493.739 324.518 491.032 324.518H490.192C489.259 324.518 488.605 324.378 488.232 324.098C487.859 323.725 487.625 322.885 487.532 321.578C487.532 320.738 487.719 320.038 488.092 319.478C488.559 318.825 489.165 318.498 489.912 318.498C496.072 318.778 501.625 318.918 506.572 318.918H528.412C537.372 318.918 545.492 320.738 552.772 324.378C560.145 327.925 565.932 333.058 570.132 339.778C574.425 346.498 576.572 354.432 576.572 363.578C576.572 373.098 574.145 381.172 569.292 387.798C564.532 394.332 558.279 399.232 550.532 402.498C542.879 405.672 534.665 407.258 525.892 407.258H506.572C501.625 407.258 496.072 407.398 489.912 407.678ZM527.992 402.078C538.912 402.078 546.892 398.718 551.932 391.998C557.065 385.185 559.632 375.712 559.632 363.578C559.632 355.925 558.232 349.112 555.432 343.138C552.725 337.072 548.759 332.358 543.532 328.998C538.305 325.638 532.099 323.958 524.912 323.958L513.992 324.098V392.558C513.992 396.198 515.065 398.718 517.212 400.118C519.452 401.425 523.045 402.078 527.992 402.078Z" fill="#153951"/>
<mask id="path-6-inside-1" fill="white">
<path fill-rule="evenodd" clip-rule="evenodd" d="M639.137 102.085L599.497 162.179L599.482 162.165L585.502 148.184L585.507 148.18L574.896 137.578L557.988 120.67L557.776 120.458L619.907 82.8556L639.137 102.085ZM670.251 54.9164L673.029 50.7049L672.637 50.9424L670.251 54.9164ZM609.701 173.951L609.224 173.636L599.482 183.378L122.619 660.241L122.619 660.242L119.084 663.777L90.2967 692.565C89.3201 693.541 88.1917 694.273 86.9875 694.761C84.8738 695.619 82.5263 695.723 80.3556 695.075C78.8175 694.616 77.3681 693.779 76.1534 692.565L27.5874 643.999C23.6822 640.094 23.6822 633.762 27.5874 629.857L536.774 120.67L546.633 110.811L546.128 109.975L674.751 32.1299C686.153 25.229 698.996 38.5812 691.657 49.7067L609.701 173.951ZM129.048 605.029L138.81 614.792L142.833 618.814L588.876 172.771L574.9 158.795L129.048 605.029ZM66.5271 612.13L67.873 613.476L104 649.603L108.022 653.625L83.2245 678.423L41.7295 636.928L66.5271 612.13ZM564.293 148.189L118.441 594.423L102.684 578.665L101.338 577.32L547.381 131.276L564.293 148.189ZM92.0771 589.272L128.204 625.399L114.606 638.996L78.4796 602.869L92.0771 589.272Z"/>
</mask>
<path fill-rule="evenodd" clip-rule="evenodd" d="M639.137 102.085L599.497 162.179L599.482 162.165L585.502 148.184L585.507 148.18L574.896 137.578L557.988 120.67L557.776 120.458L619.907 82.8556L639.137 102.085ZM670.251 54.9164L673.029 50.7049L672.637 50.9424L670.251 54.9164ZM609.701 173.951L609.224 173.636L599.482 183.378L122.619 660.241L122.619 660.242L119.084 663.777L90.2967 692.565C89.3201 693.541 88.1917 694.273 86.9875 694.761C84.8738 695.619 82.5263 695.723 80.3556 695.075C78.8175 694.616 77.3681 693.779 76.1534 692.565L27.5874 643.999C23.6822 640.094 23.6822 633.762 27.5874 629.857L536.774 120.67L546.633 110.811L546.128 109.975L674.751 32.1299C686.153 25.229 698.996 38.5812 691.657 49.7067L609.701 173.951ZM129.048 605.029L138.81 614.792L142.833 618.814L588.876 172.771L574.9 158.795L129.048 605.029ZM66.5271 612.13L67.873 613.476L104 649.603L108.022 653.625L83.2245 678.423L41.7295 636.928L66.5271 612.13ZM564.293 148.189L118.441 594.423L102.684 578.665L101.338 577.32L547.381 131.276L564.293 148.189ZM92.0771 589.272L128.204 625.399L114.606 638.996L78.4796 602.869L92.0771 589.272Z" fill="#3081B0"/>
<path d="M599.497 162.179L588.89 172.786L601.893 185.788L612.018 170.439L599.497 162.179ZM639.137 102.085L651.658 110.345L658.396 100.131L649.744 91.4789L639.137 102.085ZM599.482 162.165L588.876 172.771L599.482 162.165ZM585.502 148.184L574.889 137.584L564.295 148.191L574.896 158.791L585.502 148.184ZM585.507 148.18L596.12 158.78L606.718 148.169L596.109 137.569L585.507 148.18ZM574.896 137.578L564.289 148.184L564.294 148.189L574.896 137.578ZM557.988 120.67L547.381 131.276L547.381 131.276L557.988 120.67ZM557.776 120.458L550.01 107.626L533.638 117.534L547.17 131.065L557.776 120.458ZM619.907 82.8556L630.514 72.249L622.2 63.9348L612.14 70.0228L619.907 82.8556ZM670.251 54.9164L657.391 47.196L682.773 63.1758L670.251 54.9164ZM673.029 50.7049L685.551 58.9644L665.263 37.8722L673.029 50.7049ZM672.637 50.9424L664.87 38.1097L661.69 40.0346L659.776 43.222L672.637 50.9424ZM609.224 173.636L617.484 161.115L607.27 154.378L598.617 163.03L609.224 173.636ZM609.701 173.951L601.442 186.472L613.963 194.732L622.223 182.211L609.701 173.951ZM599.482 183.378L588.876 172.771L588.876 172.771L599.482 183.378ZM122.619 660.241L112.012 649.635L101.406 660.241L112.012 670.848L122.619 660.241ZM122.619 660.242L133.226 670.848L143.833 660.242L133.226 649.635L122.619 660.242ZM86.9875 694.761L81.3522 680.86L81.3505 680.861L86.9875 694.761ZM80.3556 695.075L76.0657 709.449L76.0658 709.449L80.3556 695.075ZM27.5874 629.857L16.9808 619.25L27.5874 629.857ZM536.774 120.67L547.381 131.276L536.774 120.67ZM546.633 110.811L557.24 121.417L565.554 113.103L559.466 103.044L546.633 110.811ZM546.128 109.975L538.361 97.1424L525.528 104.909L533.295 117.742L546.128 109.975ZM674.751 32.1299L666.984 19.2971L666.984 19.2971L674.751 32.1299ZM691.657 49.7067L704.179 57.9661L691.657 49.7067ZM129.048 605.029L118.436 594.427L107.839 605.034L118.441 615.636L129.048 605.029ZM142.833 618.814L132.226 629.421L142.833 640.028L153.439 629.421L142.833 618.814ZM588.876 172.771L599.482 183.378L610.089 172.771L599.482 162.165L588.876 172.771ZM574.9 158.795L585.507 148.189L574.896 137.578L564.289 148.193L574.9 158.795ZM67.873 613.476L57.2664 624.083L57.2664 624.083L67.873 613.476ZM66.5271 612.13L77.1337 601.524L66.5271 590.917L55.9205 601.524L66.5271 612.13ZM104 649.603L114.606 638.996L114.606 638.996L104 649.603ZM108.022 653.625L118.629 664.232L129.235 653.625L118.629 643.018L108.022 653.625ZM83.2245 678.423L72.6179 689.029L83.2245 699.636L93.8311 689.029L83.2245 678.423ZM41.7295 636.928L31.1229 626.321L20.5163 636.928L31.1229 647.534L41.7295 636.928ZM118.441 594.423L107.834 605.029L118.446 615.641L129.052 605.025L118.441 594.423ZM564.293 148.189L574.905 158.791L585.502 148.184L574.9 137.582L564.293 148.189ZM102.684 578.665L92.0771 589.272L102.684 578.665ZM101.338 577.32L90.7311 566.713L80.1245 577.32L90.7311 587.926L101.338 577.32ZM547.381 131.276L557.988 120.67L547.381 110.063L536.774 120.67L547.381 131.276ZM128.204 625.399L138.81 636.005L149.417 625.399L138.81 614.792L128.204 625.399ZM92.0771 589.272L102.684 578.665L92.0771 568.059L81.4705 578.665L92.0771 589.272ZM114.606 638.996L104 649.603L114.606 660.209L125.213 649.603L114.606 638.996ZM78.4796 602.869L67.873 592.263L57.2664 602.87L67.873 613.476L78.4796 602.869ZM612.018 170.439L651.658 110.345L626.616 93.826L586.976 153.92L612.018 170.439ZM588.876 172.771L588.89 172.786L610.104 151.573L610.089 151.558L588.876 172.771ZM574.896 158.791L588.876 172.771L610.089 151.558L596.109 137.578L574.896 158.791ZM574.894 137.579L574.889 137.584L596.115 158.785L596.12 158.78L574.894 137.579ZM564.294 148.189L574.905 158.791L596.109 137.569L585.498 126.967L564.294 148.189ZM547.381 131.276L564.289 148.184L585.502 126.971L568.594 110.063L547.381 131.276ZM547.17 131.065L547.381 131.276L568.594 110.063L568.383 109.852L547.17 131.065ZM612.14 70.0228L550.01 107.626L565.543 133.291L627.674 95.6883L612.14 70.0228ZM649.744 91.4789L630.514 72.249L609.301 93.4621L628.53 112.692L649.744 91.4789ZM682.773 63.1758L685.551 58.9644L660.508 42.4455L657.73 46.6569L682.773 63.1758ZM665.263 37.8722L664.87 38.1097L680.404 63.7751L680.796 63.5376L665.263 37.8722ZM659.776 43.222L657.391 47.196L683.112 62.6367L685.498 58.6628L659.776 43.222ZM600.965 186.158L601.442 186.472L617.961 161.43L617.484 161.115L600.965 186.158ZM610.089 193.984L619.831 184.243L598.617 163.03L588.876 172.771L610.089 193.984ZM133.226 670.848L610.089 193.984L588.876 172.771L112.012 649.635L133.226 670.848ZM133.226 649.635L133.226 649.635L112.012 670.848L112.013 670.848L133.226 649.635ZM129.691 674.384L133.226 670.848L112.013 649.635L108.477 653.171L129.691 674.384ZM100.903 703.171L129.691 674.384L108.477 653.171L79.6901 681.958L100.903 703.171ZM92.6227 708.663C95.6521 707.435 98.4798 705.595 100.903 703.171L79.6901 681.958C80.1604 681.488 80.7312 681.112 81.3522 680.86L92.6227 708.663ZM76.0658 709.449C81.4821 711.065 87.3315 710.808 92.6245 708.662L81.3505 680.861C82.4161 680.429 83.5706 680.381 84.6454 680.702L76.0658 709.449ZM65.5468 703.171C68.5649 706.189 72.2011 708.295 76.0657 709.449L84.6455 680.702C85.4338 680.937 86.1713 681.369 86.76 681.958L65.5468 703.171ZM16.9808 654.605L65.5468 703.171L86.76 681.958L38.194 633.392L16.9808 654.605ZM16.9808 619.25C7.21767 629.013 7.21769 644.842 16.9808 654.605L38.194 633.392C40.1466 635.345 40.1466 638.511 38.194 640.463L16.9808 619.25ZM526.168 110.063L16.9808 619.25L38.194 640.463L547.381 131.276L526.168 110.063ZM536.027 100.204L526.168 110.063L547.381 131.276L557.24 121.417L536.027 100.204ZM533.295 117.742L533.801 118.577L559.466 103.044L558.96 102.208L533.295 117.742ZM666.984 19.2971L538.361 97.1424L553.894 122.808L682.517 44.9626L666.984 19.2971ZM704.179 57.9661C720.324 33.49 692.069 4.11536 666.984 19.2971L682.517 44.9626C682.307 45.0897 681.607 45.3381 680.735 45.1906C680.026 45.0709 679.621 44.7649 679.421 44.5569C679.221 44.3489 678.931 43.9322 678.839 43.2197C678.726 42.3424 679.001 41.6521 679.136 41.4472L704.179 57.9661ZM622.223 182.211L704.179 57.9661L679.136 41.4472L597.18 165.692L622.223 182.211ZM149.417 604.185L139.654 594.423L118.441 615.636L128.204 625.399L149.417 604.185ZM153.439 608.208L149.417 604.185L128.204 625.399L132.226 629.421L153.439 608.208ZM578.269 162.165L132.226 608.208L153.439 629.421L599.482 183.378L578.269 162.165ZM564.293 169.402L578.269 183.378L599.482 162.165L585.507 148.189L564.293 169.402ZM139.659 615.632L585.511 169.397L564.289 148.193L118.436 594.427L139.659 615.632ZM78.4796 602.869L77.1337 601.524L55.9205 622.737L57.2664 624.083L78.4796 602.869ZM114.606 638.996L78.4796 602.869L57.2664 624.083L93.393 660.209L114.606 638.996ZM118.629 643.018L114.606 638.996L93.393 660.209L97.4155 664.232L118.629 643.018ZM93.8311 689.029L118.629 664.232L97.4155 643.018L72.6179 667.816L93.8311 689.029ZM31.1229 647.534L72.6179 689.029L93.8311 667.816L52.3361 626.321L31.1229 647.534ZM55.9205 601.524L31.1229 626.321L52.3361 647.534L77.1337 622.737L55.9205 601.524ZM129.052 605.025L574.905 158.791L553.682 137.587L107.83 583.821L129.052 605.025ZM92.0771 589.272L107.834 605.029L129.048 583.816L113.29 568.059L92.0771 589.272ZM90.7311 587.926L92.0771 589.272L113.29 568.059L111.944 566.713L90.7311 587.926ZM536.774 120.67L90.7311 566.713L111.944 587.926L557.988 141.883L536.774 120.67ZM574.9 137.582L557.988 120.67L536.774 141.883L553.687 158.795L574.9 137.582ZM138.81 614.792L102.684 578.665L81.4705 599.879L117.597 636.005L138.81 614.792ZM125.213 649.603L138.81 636.005L117.597 614.792L104 628.389L125.213 649.603ZM67.873 613.476L104 649.603L125.213 628.389L89.0862 592.263L67.873 613.476ZM81.4705 578.665L67.873 592.263L89.0862 613.476L102.684 599.879L81.4705 578.665Z" fill="#3081B0" mask="url(#path-6-inside-1)"/>
<rect x="176.469" y="123.234" width="640.032" height="79.5012" transform="rotate(45 176.469 123.234)" fill="white"/>
<mask id="path-9-inside-2" fill="white">
<path fill-rule="evenodd" clip-rule="evenodd" d="M102.085 80.7404L162.179 120.38L162.165 120.395L148.184 134.375L148.15 134.342L137.577 144.982L120.67 161.89L120.458 162.101L82.8554 99.9703L102.085 80.7404ZM54.9158 49.6258L50.7048 46.8481L50.9423 47.2404L54.9158 49.6258ZM173.951 110.176L173.636 110.653L183.378 120.395L660.241 597.258L660.242 597.258L663.777 600.794L692.565 629.581C693.053 630.069 693.48 630.596 693.846 631.151C695.498 633.652 695.908 636.733 695.075 639.522C694.616 641.06 693.779 642.509 692.565 643.724L643.999 692.29C640.093 696.195 633.762 696.195 629.857 692.29L120.67 183.103L110.811 173.244L109.975 173.75L32.1297 45.1267C25.2289 33.7245 38.5811 20.8814 49.7065 28.2201L173.951 110.176ZM606.288 589.571L616.024 579.835L618.814 577.045L172.771 131.002L158.825 144.948L606.288 589.571ZM612.13 653.35L613.476 652.004L650.835 614.646L653.625 611.855L678.423 636.653L636.928 678.148L612.13 653.35ZM148.218 155.555L595.681 600.178L578.665 617.194L577.319 618.54L131.276 172.496L148.218 155.555ZM589.272 627.8L626.631 590.442L640.228 604.039L602.869 641.398L589.272 627.8Z"/>
</mask>
<path fill-rule="evenodd" clip-rule="evenodd" d="M102.085 80.7404L162.179 120.38L162.165 120.395L148.184 134.375L148.15 134.342L137.577 144.982L120.67 161.89L120.458 162.101L82.8554 99.9703L102.085 80.7404ZM54.9158 49.6258L50.7048 46.8481L50.9423 47.2404L54.9158 49.6258ZM173.951 110.176L173.636 110.653L183.378 120.395L660.241 597.258L660.242 597.258L663.777 600.794L692.565 629.581C693.053 630.069 693.48 630.596 693.846 631.151C695.498 633.652 695.908 636.733 695.075 639.522C694.616 641.06 693.779 642.509 692.565 643.724L643.999 692.29C640.093 696.195 633.762 696.195 629.857 692.29L120.67 183.103L110.811 173.244L109.975 173.75L32.1297 45.1267C25.2289 33.7245 38.5811 20.8814 49.7065 28.2201L173.951 110.176ZM606.288 589.571L616.024 579.835L618.814 577.045L172.771 131.002L158.825 144.948L606.288 589.571ZM612.13 653.35L613.476 652.004L650.835 614.646L653.625 611.855L678.423 636.653L636.928 678.148L612.13 653.35ZM148.218 155.555L595.681 600.178L578.665 617.194L577.319 618.54L131.276 172.496L148.218 155.555ZM589.272 627.8L626.631 590.442L640.228 604.039L602.869 641.398L589.272 627.8Z" fill="#8DC1E2"/>
<path d="M162.179 120.38L172.786 130.987L185.788 117.984L170.439 107.859L162.179 120.38ZM102.085 80.7404L110.345 68.2192L100.131 61.4817L91.4787 70.1338L102.085 80.7404ZM148.184 134.375L137.611 145.016L148.218 155.555L158.791 144.982L148.184 134.375ZM148.15 134.342L158.723 123.701L148.083 113.129L137.51 123.769L148.15 134.342ZM137.577 144.982L148.184 155.589L148.201 155.572L148.218 155.555L137.577 144.982ZM120.67 161.89L110.063 151.283L120.67 161.89ZM120.458 162.101L107.625 169.868L117.534 186.239L131.065 172.708L120.458 162.101ZM82.8554 99.9703L72.2488 89.3637L63.9347 97.6779L70.0227 107.737L82.8554 99.9703ZM54.9158 49.6258L47.1954 62.4864L63.1753 37.1046L54.9158 49.6258ZM50.7048 46.8481L58.9642 34.3268L37.8721 54.6147L50.7048 46.8481ZM50.9423 47.2404L38.1095 55.0071L40.0344 58.1876L43.2219 60.1011L50.9423 47.2404ZM173.636 110.653L161.115 102.394L154.378 112.608L163.03 121.26L173.636 110.653ZM173.951 110.176L186.472 118.435L194.732 105.914L182.21 97.6548L173.951 110.176ZM183.378 120.395L172.771 131.002L183.378 120.395ZM660.241 597.258L649.635 607.865L660.241 618.472L670.848 607.865L660.241 597.258ZM660.242 597.258L670.848 586.651L660.242 576.045L649.635 586.651L660.242 597.258ZM663.777 600.794L674.384 590.187L663.777 600.794ZM692.565 629.581L681.958 640.187L681.958 640.187L692.565 629.581ZM693.846 631.151L681.328 639.414L681.329 639.415L693.846 631.151ZM695.075 639.522L709.449 643.812L709.449 643.812L695.075 639.522ZM692.565 643.724L681.958 633.117L692.565 643.724ZM643.999 692.29L654.605 702.897L643.999 692.29ZM629.857 692.29L619.25 702.897L629.857 692.29ZM120.67 183.103L110.063 193.71L120.67 183.103ZM110.811 173.244L121.417 162.638L113.103 154.323L103.044 160.411L110.811 173.244ZM109.975 173.75L97.1422 181.517L104.909 194.349L117.742 186.583L109.975 173.75ZM32.1297 45.1267L44.9625 37.3601L44.9625 37.3601L32.1297 45.1267ZM49.7065 28.2201L41.4471 40.7414L41.4471 40.7414L49.7065 28.2201ZM606.288 589.571L595.715 600.211L606.322 610.75L616.895 600.178L606.288 589.571ZM618.814 577.045L629.421 587.651L640.028 577.045L629.421 566.438L618.814 577.045ZM172.771 131.002L183.378 120.395L172.771 109.788L162.165 120.395L172.771 131.002ZM158.825 144.948L148.218 134.342L137.577 144.982L148.252 155.588L158.825 144.948ZM613.476 652.004L624.083 662.611L613.476 652.004ZM612.13 653.35L601.524 642.744L590.917 653.35L601.524 663.957L612.13 653.35ZM650.835 614.646L640.228 604.039L650.835 614.646ZM653.625 611.855L664.232 601.249L653.625 590.642L643.018 601.249L653.625 611.855ZM678.423 636.653L689.029 647.259L699.636 636.653L689.029 626.046L678.423 636.653ZM636.928 678.148L626.321 688.754L636.928 699.361L647.534 688.754L636.928 678.148ZM595.681 600.178L606.288 610.784L616.929 600.144L606.254 589.537L595.681 600.178ZM148.218 155.555L158.791 144.914L148.184 134.375L137.611 144.948L148.218 155.555ZM578.665 617.194L589.272 627.8L578.665 617.194ZM577.319 618.54L566.713 629.146L577.319 639.753L587.926 629.146L577.319 618.54ZM131.276 172.496L120.67 161.89L110.063 172.496L120.67 183.103L131.276 172.496ZM626.631 590.442L637.237 579.835L626.631 569.228L616.024 579.835L626.631 590.442ZM589.272 627.8L578.665 617.194L568.059 627.8L578.665 638.407L589.272 627.8ZM640.228 604.039L650.835 614.646L661.441 604.039L650.835 593.432L640.228 604.039ZM602.869 641.398L592.263 652.004L602.869 662.611L613.476 652.004L602.869 641.398ZM170.439 107.859L110.345 68.2192L93.8259 93.2617L153.92 132.902L170.439 107.859ZM172.771 131.002L172.786 130.987L151.572 109.774L151.558 109.788L172.771 131.002ZM158.791 144.982L172.771 131.002L151.558 109.788L137.578 123.769L158.791 144.982ZM137.578 144.982L137.611 145.016L158.757 123.735L158.723 123.701L137.578 144.982ZM148.218 155.555L158.791 144.914L137.51 123.769L126.937 134.409L148.218 155.555ZM131.276 172.496L148.184 155.589L126.971 134.375L110.063 151.283L131.276 172.496ZM131.065 172.708L131.276 172.496L110.063 151.283L109.852 151.495L131.065 172.708ZM70.0227 107.737L107.625 169.868L133.291 154.335L95.6882 92.2037L70.0227 107.737ZM91.4787 70.1338L72.2488 89.3637L93.462 110.577L112.692 91.347L91.4787 70.1338ZM63.1753 37.1046L58.9642 34.3268L42.4453 59.3693L46.6564 62.1471L63.1753 37.1046ZM37.8721 54.6147L38.1095 55.0071L63.775 39.4738L63.5375 39.0814L37.8721 54.6147ZM43.2219 60.1011L47.1954 62.4864L62.6362 36.7652L58.6626 34.3798L43.2219 60.1011ZM186.157 118.913L186.472 118.435L161.43 101.917L161.115 102.394L186.157 118.913ZM193.984 109.788L184.243 100.047L163.03 121.26L172.771 131.002L193.984 109.788ZM670.848 586.652L193.984 109.788L172.771 131.002L649.635 607.865L670.848 586.652ZM649.635 586.651L649.635 586.652L670.848 607.865L670.848 607.865L649.635 586.651ZM674.384 590.187L670.848 586.651L649.635 607.865L653.171 611.4L674.384 590.187ZM703.171 618.974L674.384 590.187L653.171 611.4L681.958 640.187L703.171 618.974ZM706.365 622.887C705.448 621.499 704.383 620.185 703.171 618.974L681.958 640.187C681.723 639.953 681.512 639.693 681.328 639.414L706.365 622.887ZM709.449 643.812C711.521 636.867 710.517 629.176 706.364 622.886L681.329 639.415C680.479 638.129 680.294 636.598 680.702 635.232L709.449 643.812ZM703.171 654.331C706.189 651.312 708.295 647.676 709.449 643.812L680.702 635.232C680.937 634.444 681.369 633.706 681.958 633.117L703.171 654.331ZM654.605 702.897L703.171 654.331L681.958 633.117L633.392 681.683L654.605 702.897ZM619.25 702.897C629.013 712.66 644.842 712.66 654.605 702.897L633.392 681.683C635.345 679.731 638.511 679.731 640.463 681.683L619.25 702.897ZM110.063 193.71L619.25 702.897L640.463 681.683L131.276 172.496L110.063 193.71ZM100.204 183.851L110.063 193.71L131.276 172.496L121.417 162.638L100.204 183.851ZM117.742 186.583L118.577 186.077L103.044 160.411L102.208 160.917L117.742 186.583ZM19.297 52.8933L97.1422 181.517L122.808 165.983L44.9625 37.3601L19.297 52.8933ZM57.966 15.6989C33.4901 -0.446236 4.11507 27.8084 19.297 52.8933L44.9625 37.3601C45.0895 37.57 45.3379 38.2705 45.1905 39.1428C45.0707 39.8511 44.7647 40.2562 44.5567 40.4563C44.3488 40.6564 43.932 40.9464 43.2196 41.0385C42.3423 41.1519 41.652 40.8765 41.4471 40.7414L57.966 15.6989ZM182.21 97.6548L57.966 15.6989L41.4471 40.7414L165.692 122.697L182.21 97.6548ZM605.418 569.228L595.682 578.964L616.895 600.178L626.631 590.442L605.418 569.228ZM608.208 566.438L605.418 569.228L626.631 590.442L629.421 587.651L608.208 566.438ZM162.165 141.608L608.208 587.651L629.421 566.438L183.378 120.395L162.165 141.608ZM169.431 155.555L183.378 141.608L162.165 120.395L148.218 134.342L169.431 155.555ZM616.861 578.931L169.397 134.308L148.252 155.588L595.715 600.211L616.861 578.931ZM602.869 641.398L601.524 642.744L622.737 663.957L624.083 662.611L602.869 641.398ZM640.228 604.039L602.869 641.398L624.083 662.611L661.441 625.252L640.228 604.039ZM643.018 601.249L640.228 604.039L661.441 625.252L664.232 622.462L643.018 601.249ZM689.029 626.046L664.232 601.249L643.018 622.462L667.816 647.259L689.029 626.046ZM647.534 688.754L689.029 647.259L667.816 626.046L626.321 667.541L647.534 688.754ZM601.524 663.957L626.321 688.754L647.534 667.541L622.737 642.744L601.524 663.957ZM606.254 589.537L158.791 144.914L137.645 166.195L585.109 610.818L606.254 589.537ZM589.272 627.8L606.288 610.784L585.075 589.571L568.059 606.587L589.272 627.8ZM587.926 629.146L589.272 627.8L568.059 606.587L566.713 607.933L587.926 629.146ZM120.67 183.103L566.713 629.146L587.926 607.933L141.883 161.89L120.67 183.103ZM137.611 144.948L120.67 161.89L141.883 183.103L158.824 166.161L137.611 144.948ZM616.024 579.835L578.665 617.194L599.879 638.407L637.237 601.048L616.024 579.835ZM650.835 593.432L637.237 579.835L616.024 601.048L629.622 614.646L650.835 593.432ZM613.476 652.004L650.835 614.646L629.622 593.432L592.263 630.791L613.476 652.004ZM578.665 638.407L592.263 652.004L613.476 630.791L599.879 617.194L578.665 638.407Z" fill="#8DC1E2" mask="url(#path-9-inside-2)"/>
</svg>
