<?xml version="1.0" encoding="UTF-8"?>
<svg width="47px" height="22px" viewBox="0 0 47 22" version="1.1" xmlns="http://www.w3.org/2000/svg" xmlns:xlink="http://www.w3.org/1999/xlink">
    <title>Glasses</title>
    <g id="Page-1" stroke="none" stroke-width="1" fill="none" fill-rule="evenodd">
        <g id="2705723" transform="translate(-57.000000, -62.000000)" fill="#2C2945">
            <g id="MyGal" transform="translate(43.131954, 35.419235)">
                <g id="Glasses" transform="translate(14.720046, 26.860765)">
                    <path d="M10.125,1 C5.094,1 1,5.093 1,10.125 C1,15.156 5.094,19.249 10.125,19.249 C15.157,19.249 19.25,15.156 19.25,10.125 C19.25,5.093 15.157,1 10.125,1 Z M10.125,20.249 C4.542,20.249 0,15.707 0,10.125 C0,4.542 4.542,1.77635684e-15 10.125,1.77635684e-15 C15.708,1.77635684e-15 20.25,4.542 20.25,10.125 C20.25,15.707 15.708,20.249 10.125,20.249 L10.125,20.249 Z" id="Fill-33"></path>
                    <path d="M34.998,1 C29.966,1 25.873,5.093 25.873,10.125 C25.873,15.156 29.966,19.249 34.998,19.249 C40.029,19.249 44.123,15.156 44.123,10.125 C44.123,5.093 40.029,1 34.998,1 Z M34.998,20.249 C29.415,20.249 24.873,15.707 24.873,10.125 C24.873,4.542 29.415,1.77635684e-15 34.998,1.77635684e-15 C40.581,1.77635684e-15 45.123,4.542 45.123,10.125 C45.123,15.707 40.581,20.249 34.998,20.249 L34.998,20.249 Z" id="Fill-34"></path>
                    <path d="M19.907,10.426 L19.333,9.825 C19.416,9.747 21.394,7.904 25.402,9.417 L25.109,10.194 C21.621,8.877 19.975,10.362 19.907,10.426" id="Fill-35"></path>
                </g>
            </g>
        </g>
    </g>
</svg>