<svg width="68" height="68" viewBox="0 0 68 68" fill="none" xmlns="http://www.w3.org/2000/svg">
<path d="M66.4351 0H8.99212C8.68719 0 8.3873 0.120727 8.19153 0.354344C7.76361 0.865008 7.95406 1.59375 8.48 1.87691L21.8781 9.09128C21.8795 9.09195 21.8804 9.09327 21.8806 9.09487L25.0001 29.8908C25.1118 30.6113 25.9674 30.9806 26.5652 30.5563L39.65 21.2592C39.6515 21.2581 39.6535 21.258 39.6552 21.2589L48.9278 26.3588C49.37 26.6018 49.9401 26.4682 50.228 26.0541L59.9778 12.0389C60.2925 11.5864 60.1808 10.9643 59.7284 10.6496C59.2757 10.3347 58.654 10.4465 58.339 10.899L49.105 24.1732C49.1035 24.1752 49.1008 24.1759 49.0987 24.1747L30.6067 14.0041C30.603 14.0022 30.6035 13.9967 30.6075 13.9952L63.893 2.90009C63.8973 2.89863 63.9011 2.90368 63.8984 2.9074L61.1388 6.87411C60.825 7.32514 60.898 7.96184 61.3411 8.2867C61.7954 8.6198 62.4314 8.51142 62.7512 8.05216L67.262 1.56798C67.2902 1.52721 67.3157 1.48298 67.3376 1.43823C67.6616 0.780539 67.1621 0 66.4351 0ZM37.7031 20.1852C37.7062 20.187 37.7065 20.1915 37.7035 20.1935L27.2886 27.5934C27.2852 27.5958 27.2805 27.593 27.2811 27.5887L28.9119 15.3576C28.9123 15.3543 28.916 15.3525 28.919 15.3541L37.7031 20.1852ZM53.6849 4.1986L27.8006 12.8266C27.4438 12.9462 27.1767 13.2681 27.1269 13.6416L25.9333 22.593C25.9325 22.5986 25.9245 22.5986 25.9237 22.5931L23.926 9.2743C23.9256 9.27164 23.9273 9.26925 23.9299 9.26885L53.6825 4.18917C53.6883 4.18811 53.6904 4.19661 53.6849 4.1986ZM54.6096 2.00573L22.9655 7.40841C22.9644 7.40855 22.9633 7.40841 22.9624 7.40788L12.9288 2.00534C12.9244 2.00295 12.926 1.99617 12.9311 1.99617H54.6088C54.6148 1.99617 54.6155 2.0048 54.6096 2.00573Z" fill="#64AD99"/>
<path d="M18.4779 39.9447C18.1979 39.9488 17.9128 39.9602 17.6306 39.9785C17.0805 40.0141 16.6634 40.4888 16.6989 41.0389C16.7329 41.5671 17.1721 41.9727 17.6939 41.9727C17.7156 41.9727 17.7373 41.9721 17.7593 41.9706C18.0088 41.9545 18.2606 41.9444 18.5078 41.9407C19.059 41.9325 19.4991 41.4789 19.4909 40.9279C19.4826 40.3768 19.0264 39.9334 18.4779 39.9447Z" fill="#64AD99"/>
<path d="M23.3829 40.6483C22.8654 40.4803 22.3218 40.3401 21.7674 40.2314C21.2269 40.125 20.7021 40.4778 20.596 41.0189C20.4899 41.5597 20.8425 42.0843 21.3834 42.1904C21.8596 42.2838 22.3251 42.4038 22.7668 42.5472C23.2845 42.7149 23.8563 42.4232 24.0243 41.9059C24.1943 41.3815 23.907 40.8185 23.3829 40.6483Z" fill="#64AD99"/>
<path d="M12.9912 49.8857C12.9133 49.4306 12.8681 48.9612 12.8572 48.4906C12.8445 47.9395 12.386 47.5038 11.8363 47.5159C11.2853 47.5287 10.8489 47.9858 10.8616 48.5369C10.8747 49.1048 10.9293 49.672 11.0238 50.2229C11.1155 50.7587 11.6399 51.1302 12.176 51.0379C12.7195 50.9449 13.0843 50.4289 12.9912 49.8857Z" fill="#64AD99"/>
<path d="M17.8605 56.0497C17.4387 55.9001 17.0283 55.7066 16.6409 55.4746C16.1678 55.1916 15.555 55.3454 15.2717 55.8183C14.9887 56.2912 15.1425 56.9042 15.6154 57.1875C16.1163 57.4871 16.6468 57.7373 17.1932 57.9311C17.7335 58.1226 18.3389 57.8049 18.4897 57.2529C18.6257 56.7556 18.346 56.2219 17.8605 56.0497Z" fill="#64AD99"/>
<path d="M19.1558 36.0877C18.8131 35.6559 18.1852 35.5838 17.7535 35.9263C17.33 36.2623 16.9147 36.6195 16.5194 36.988C16.1161 37.3637 16.0938 37.9953 16.4694 38.3986C16.8398 38.7964 17.4819 38.8192 17.8798 38.4485C18.2368 38.116 18.6119 37.7934 18.9944 37.49C19.4262 37.1473 19.4984 36.5196 19.1558 36.0877Z" fill="#64AD99"/>
<path d="M14.6204 53.6682C14.3431 53.3096 14.0926 52.9202 13.876 52.5107C13.6182 52.0236 13.014 51.8378 12.527 52.0954C12.0398 52.3534 11.8539 52.9572 12.1117 53.4444C12.3816 53.9545 12.6945 54.4406 13.0414 54.8893C13.4002 55.3534 14.1036 55.4037 14.5257 54.9955C14.8863 54.6466 14.9272 54.0648 14.6204 53.6682Z" fill="#64AD99"/>
<path d="M13.1233 43.0659C12.6162 42.8498 12.03 43.0858 11.8139 43.5929C11.5756 44.1518 11.3809 44.7019 11.2504 45.1833C11.1061 45.7154 11.4205 46.2635 11.9524 46.4079C12.0397 46.4315 12.1276 46.4428 12.214 46.4428C12.6537 46.4428 13.0563 46.1502 13.1767 45.7057C13.2513 45.4306 13.3939 44.9765 13.6501 44.3752C13.8664 43.8681 13.6305 43.2819 13.1233 43.0659Z" fill="#64AD99"/>
<path d="M15.7219 39.2141C15.2869 38.875 14.6599 38.9527 14.3211 39.3875C13.9872 39.8157 13.6675 40.2614 13.3713 40.7122C13.0684 41.1728 13.1963 41.7917 13.6569 42.0945C14.1116 42.3936 14.7404 42.2632 15.0392 41.809C15.3061 41.403 15.5942 41.0012 15.8953 40.6151C16.2342 40.1803 16.1565 39.553 15.7219 39.2141Z" fill="#64AD99"/>
<path d="M27.7453 43.2663C27.3534 42.8595 26.9083 42.4802 26.4225 42.1389C25.9716 41.8219 25.3491 41.9306 25.0321 42.3818C24.7152 42.8328 24.824 43.4553 25.275 43.7722C25.6567 44.0404 26.0041 44.3361 26.3076 44.6513C26.6851 45.043 27.3271 45.0549 27.7189 44.6776C28.1158 44.2951 28.1277 43.6633 27.7453 43.2663Z" fill="#64AD99"/>
<path d="M23.083 57.0182C22.9674 56.4791 22.4372 56.1361 21.8979 56.2514C21.4819 56.3405 21.0462 56.3995 20.6014 56.4269L20.5238 56.4313C19.9733 56.4586 19.5491 56.927 19.5764 57.4777C19.6029 58.0115 20.0439 58.4262 20.5724 58.4262C20.589 58.4262 20.606 58.4258 20.6227 58.425L20.7245 58.4193C21.2674 58.3863 21.8029 58.3135 22.3164 58.2035C22.8553 58.0877 23.1985 57.5572 23.083 57.0182Z" fill="#64AD99"/>
<path d="M29.8896 48.0324C29.8422 47.4275 29.7316 46.8426 29.5607 46.2939C29.3966 45.7676 28.8368 45.4738 28.3108 45.638C27.7844 45.8019 27.4909 46.3615 27.6548 46.8879C27.7815 47.2941 27.8637 47.7316 27.8994 48.188C27.9418 48.7302 28.43 49.1477 28.9723 49.1053C29.5144 49.0628 29.932 48.5747 29.8896 48.0324Z" fill="#64AD99"/>
<path d="M28.8386 50.2167C28.3097 50.0607 27.7548 50.3625 27.5985 50.8911C27.4685 51.3315 27.2998 51.7634 27.0974 52.175C26.854 52.6694 27.0577 53.2678 27.5524 53.5111C28.0407 53.7515 28.6485 53.5439 28.8885 53.0561C29.1409 52.5431 29.351 52.005 29.513 51.4565C29.6692 50.9279 29.3672 50.3727 28.8386 50.2167Z" fill="#64AD99"/>
<path d="M23.2207 33.8449C22.9863 33.3458 22.3919 33.1314 21.893 33.3658C21.4031 33.5959 20.9175 33.8466 20.4501 34.111C20.0769 34.3221 19.8771 34.7621 19.964 35.182C20.0589 35.6405 20.4744 35.9781 20.9425 35.9781C21.109 35.9781 21.2777 35.9364 21.433 35.8486C21.8568 35.6089 22.2972 35.3814 22.7417 35.1726C23.2407 34.9382 23.4552 34.3437 23.2207 33.8449Z" fill="#64AD99"/>
<path d="M26.8963 54.4157C26.5166 54.016 25.8851 53.9996 25.4853 54.3791C25.1554 54.6924 24.7956 54.9755 24.4158 55.2208C23.9527 55.5199 23.8197 56.1376 24.1187 56.6007C24.4134 57.0574 25.0415 57.193 25.4986 56.8978C25.9823 56.5854 26.4404 56.2251 26.8599 55.8267C27.2596 55.4471 27.2759 54.8154 26.8963 54.4157Z" fill="#64AD99"/>
<path d="M26.951 32.6788C26.8087 32.1465 26.2616 31.8304 25.7291 31.9722C25.4599 32.0442 25.1903 32.1212 24.9279 32.201C24.4278 32.3535 24.1255 32.885 24.2494 33.3928C24.3836 33.9422 24.9688 34.2752 25.51 34.1105C25.7504 34.0372 25.9973 33.9667 26.2443 33.9006C26.7766 33.7584 27.0931 33.2113 26.951 32.6788Z" fill="#64AD99"/>
<path d="M4.51696 66.5466C4.40114 66.3224 4.28878 66.0933 4.18267 65.8658C3.94985 65.3663 3.35591 65.1501 2.8564 65.3829C2.35689 65.6157 2.14054 66.2096 2.3735 66.7092C2.4909 66.961 2.61521 67.2143 2.74311 67.462C2.99253 67.9451 3.60387 68.1408 4.08771 67.8912C4.57752 67.6386 4.7697 67.0366 4.51696 66.5466Z" fill="#64AD99"/>
<path d="M3.19247 63.217C3.0639 62.7641 2.95327 62.3026 2.86402 61.8451C2.75843 61.3041 2.23462 60.9514 1.69315 61.0568C1.1522 61.1624 0.799317 61.6866 0.904903 62.2277C1.00478 62.7398 1.12843 63.2561 1.27226 63.7625C1.42075 64.2855 1.98175 64.5988 2.50503 64.4498C3.03548 64.2992 3.34321 63.7472 3.19247 63.217Z" fill="#64AD99"/>
<path d="M1.65944 56.5773C1.11039 56.5433 0.635054 56.9598 0.599858 57.5098C0.57489 57.9011 0.56214 58.2978 0.56214 58.689C0.56214 59.048 0.549124 59.3972 0.785796 59.6919C0.977976 59.9311 1.278 60.0732 1.58573 60.0651C1.89093 60.0586 2.18099 59.9089 2.36374 59.6645C2.58514 59.3685 2.55831 59.0394 2.55831 58.6889C2.55831 58.34 2.5696 57.9861 2.59191 57.6369C2.62711 57.0869 2.20955 56.6125 1.65944 56.5773Z" fill="#64AD99"/>
<path d="M2.74302 52.2308C2.21788 52.0612 1.65595 52.3495 1.48662 52.874C1.32552 53.3732 1.18314 53.8839 1.06387 54.3918C0.93757 54.9282 1.2704 55.4654 1.80696 55.5916C2.33648 55.7162 2.88248 55.3778 3.00692 54.8485C3.1141 54.3932 3.24173 53.9352 3.38623 53.4873C3.55544 52.9626 3.26763 52.4 2.74302 52.2308Z" fill="#64AD99"/>
<path d="M7.83311 44.9422C7.45234 44.5433 6.82095 44.5284 6.42184 44.909C6.31971 45.0063 6.21851 45.1054 6.1177 45.2059C5.84809 45.4757 5.58167 45.7608 5.32574 46.0537C4.96303 46.4686 5.00527 47.0992 5.42017 47.462C5.8295 47.8199 6.47072 47.7769 6.82852 47.3676C7.05523 47.1082 7.2911 46.8558 7.52923 46.6176C7.61862 46.5282 7.70893 46.44 7.79977 46.3534C8.19874 45.9726 8.21348 45.341 7.83311 44.9422Z" fill="#64AD99"/>
<path d="M4.83224 48.2671C4.36275 47.9785 3.74809 48.1251 3.45922 48.5945C3.18589 49.039 2.92678 49.501 2.68878 49.9673C2.43829 50.4583 2.63339 51.0594 3.12453 51.3097C3.60957 51.5572 4.22011 51.3583 4.467 50.874C4.68083 50.4548 4.91378 50.0395 5.15949 49.6401C5.44835 49.1705 5.30173 48.5559 4.83224 48.2671Z" fill="#64AD99"/>
<path d="M10.9775 42.8287C10.6948 42.3556 10.082 42.2012 9.60883 42.4838C9.36818 42.6275 9.12765 42.779 8.89364 42.9343C8.43437 43.2392 8.309 43.8585 8.6138 44.3178C8.91436 44.7708 9.54376 44.8985 9.99731 44.5976C10.2052 44.4598 10.4187 44.3251 10.6326 44.1975C11.1058 43.9147 11.2602 43.3019 10.9775 42.8287Z" fill="#64AD99"/>
</svg>
