<?xml version="1.0" encoding="UTF-8"?>
<svg width="80px" height="100px" viewBox="0 0 80 100" version="1.1" xmlns="http://www.w3.org/2000/svg" xmlns:xlink="http://www.w3.org/1999/xlink">
    <title>MyGalwTurtleneck</title>
    <g id="Page-1" stroke="none" stroke-width="1" fill="none" fill-rule="evenodd">
        <g id="2705723" transform="translate(-272.000000, -35.000000)">
            <g id="MyGalwTurtleneck" transform="translate(272.131954, 35.419235)">
                <path d="M57.9692024,36.6037645 C58.0140456,49.7207645 48.3670456,60.3867645 36.4240456,60.4268774 C24.4800456,60.4667645 14.7640456,49.8667645 14.718809,36.7497645 C14.6760456,23.6337645 20.4900456,9.61376452 36.2530456,9.55049574 C54.0020456,9.47976452 57.9250456,23.4877645 57.9692024,36.6037645" id="Head" fill="#FCCEB6"></path>
                <path d="M30.2960456,64.2527645 C30.2930456,64.2707645 35.8800456,62.8307645 44.2960456,64.2527645 L47.2120456,69.4667645 L27.6290456,69.6747645 L30.2960456,64.2527645" id="Fill-71" fill="#549E87"></path>
                <path d="M19.7690858,38.4167645 C19.7810456,41.8817645 17.1030456,44.6987645 13.7900456,44.7098029 C10.4760456,44.7217645 7.78004561,41.9217645 7.76801182,38.4567645 C7.75704561,34.9937645 10.4330456,32.1757645 13.7480456,32.1637322 C17.0600456,32.1527645 19.7580456,34.9527645 19.7690858,38.4167645" id="Fill-72" fill="#F9B28F"></path>
                <path d="M65.2680858,38.2637645 C65.2800456,41.7277645 62.6030456,44.5457645 59.2890456,44.5567968 C55.9760456,44.5677645 53.2800456,41.7687645 53.2680118,38.3047645 C53.2570456,34.8397645 55.9330456,32.0217645 59.2480456,32.0107322 C62.5600456,31.9997645 65.2570456,34.7997645 65.2680858,38.2637645" id="Fill-73" fill="#F9B28F"></path>
                <path d="M50.1290456,73.5497645 C51.1170456,72.8917645 51.9920456,72.1167645 52.8350456,71.2767645 C50.9130456,70.2137645 48.3830456,69.3927645 45.0790456,69.2717645 L29.0790456,69.4087645 C29.0790456,69.4087645 27.6790456,69.5217645 25.7580456,69.9117645 C31.4060456,76.8467645 41.9860456,78.0737645 50.1290456,73.5497645" id="Fill-74" fill="#549E87"></path>
                <path d="M58.2710456,76.9807645 C58.2710456,76.9807645 56.9720456,73.5657645 52.8350456,71.2767645 C51.9920456,72.1167645 51.1170456,72.8917645 50.1290456,73.5497645 C41.9860456,78.0737645 31.4060456,76.8467645 25.7580456,69.9117645 C21.8010456,70.7117645 15.6260456,72.6877645 14.8550456,77.2897645 C13.8240456,83.4517645 12.3060456,93.6317645 12.3060456,93.6317645 C12.3060456,93.6317645 37.4910456,105.046765 60.6810456,93.4687645 L58.2710456,76.9807645" id="Fill-75" fill="#64AD99"></path>
                <path d="M29.0790456,69.4087645 C29.0790456,69.4087645 31.1710456,71.9847645 36.8380456,71.9657645 C42.5050456,71.9467645 45.0790456,69.2717645 45.0790456,69.2717645 C45.0790456,69.2717645 43.0600456,67.3777645 41.7480456,64.2527645 C38.4820456,65.7167645 34.8220456,66.5387645 31.1460456,66.7177645 C30.6270456,67.7267645 29.9530456,68.6757645 29.0790456,69.4087645" id="Fill-76" fill="#FCCEB6"></path>
                <path d="M32.8710456,60.1187645 C32.8710456,60.1187645 32.7010456,63.6937645 31.1460456,66.7177645 C34.8220456,66.5387645 38.4820456,65.7167645 41.7480456,64.2527645 C41.2220456,63.0007645 40.8060456,61.5577645 40.6850456,59.9507645 C40.6850456,59.9507645 36.1910456,61.0127645 32.8710456,60.1187645" id="Fill-77" fill="#F9B28F"></path>
                <path d="M9.55304561,38.6457645 C9.56604561,38.6477645 9.58004561,38.6497645 9.59404561,38.6517645 C9.68304561,38.6657645 9.74804561,38.6417645 9.80204561,38.5677645 C10.3080456,37.8627645 10.8430456,37.4317645 11.6970456,37.1967645 C12.9930456,36.8397645 13.7710456,37.8167645 14.3730456,38.7807645 C14.5290456,39.0297645 14.9740456,38.9477645 14.9540456,38.6237645 C14.8690456,37.2827645 13.5030456,36.4187645 12.2640456,36.3337645 C11.5600456,36.2857645 10.8080456,36.6357645 10.2640456,37.0457645 C10.1190456,37.1547645 9.40904561,38.3247645 9.55304561,38.3027645 C9.38204561,38.3287645 9.38204561,38.6207645 9.55304561,38.6457645" id="Fill-79" fill="#000000"></path>
                <path d="M11.6460456,40.1897645 C12.0650456,40.0007645 12.4720456,39.7337645 12.8580456,39.4837645 C13.3440456,39.1717645 13.9250456,39.2667645 14.4760456,39.2677645 C14.9840456,39.2687645 14.9840456,38.4767645 14.4760456,38.4807645 C13.8940456,38.4847645 13.3280456,38.4447645 12.7840456,38.6767645 C12.4680456,38.8117645 12.1640456,39.0717645 11.9000456,39.2887645 C11.6660456,39.4817645 11.6430456,39.7387645 11.4500456,39.9357645 C11.3130456,40.0747645 11.4850456,40.2627645 11.6460456,40.1897645" id="Fill-80" fill="#000000"></path>
                <path d="M63.0640456,38.1217645 C63.2090456,38.1427645 62.4900456,36.9787645 62.3460456,36.8707645 C61.7400456,36.4227645 61.0860456,36.2187645 60.3400456,36.1717645 C59.1090456,36.0947645 57.7320456,37.2617645 57.6640456,38.4777645 C57.6450456,38.7997645 58.0900456,38.8877645 58.2450456,38.6347645 C58.7610456,37.7957645 59.2690456,37.0597645 60.3400456,36.9667645 C61.3860456,36.8767645 62.2460456,37.6067645 62.8150456,38.3877645 C62.8690456,38.4607645 62.9330456,38.4867645 63.0230456,38.4727645 C63.0370456,38.4707645 63.0510456,38.4677645 63.0640456,38.4657645 C63.2330456,38.4377645 63.2360456,38.1457645 63.0640456,38.1217645" id="Fill-81" fill="#000000"></path>
                <path d="M61.1780456,39.7697645 C61.0220456,39.6137645 60.9910456,39.3777645 60.8290456,39.2117645 C60.5920456,38.9707645 60.2660456,38.7837645 59.9850456,38.6017645 C59.4400456,38.2497645 58.7600456,38.3337645 58.1420456,38.3337645 C57.6350456,38.3327645 57.6350456,39.1237645 58.1420456,39.1207645 C58.6210456,39.1177645 59.1750456,39.0207645 59.6130456,39.2377645 C60.0840456,39.4697645 60.5020456,39.8107645 60.9810456,40.0237645 C61.1410456,40.0947645 61.3160456,39.9087645 61.1780456,39.7697645" id="Fill-82" fill="#000000"></path>
                <path d="M19.1790456,95.9727645 C19.3260456,93.2207645 19.4730456,90.4687645 19.6210456,87.7167645 C19.6410456,87.3307645 19.0420456,87.3317645 19.0210456,87.7167645 C18.8740456,90.4687645 18.7260456,93.2207645 18.5790456,95.9727645 C18.5580456,96.3597645 19.1580456,96.3577645 19.1790456,95.9727645" id="Fill-83" fill="#000000"></path>
                <path d="M54.1430456,95.9767645 C54.0450456,93.2217645 53.9460456,90.4677645 53.8470456,87.7137645 C53.8330456,87.3277645 53.2330456,87.3267645 53.2470456,87.7137645 C53.3460456,90.4677645 53.4440456,93.2217645 53.5440456,95.9767645 C53.5570456,96.3617645 54.1570456,96.3637645 54.1430456,95.9767645" id="Fill-84" fill="#000000"></path>
                <path d="M36.8370456,65.5497645 C32.9620456,65.5497645 31.6710456,64.2527645 30.5040456,64.2527645 C28.6210456,64.2527645 27.2850456,67.0187645 26.5350456,69.5497645 C27.4630456,71.5717645 31.5460456,73.5497645 35.7960456,73.4667645 C40.0460456,73.3837645 43.8900456,73.6757645 47.6340456,69.5217645 C47.6340456,69.5217645 47.0870456,63.3337645 43.4620456,64.4247645 C39.7040456,65.5557645 41.0870456,65.5497645 36.8370456,65.5497645" id="Fill-85" fill="#64AD99"></path>
                <path d="M28.4290456,37.6777645 C28.4290456,38.5997645 27.8470456,39.3477645 27.1290456,39.3477645 C26.4110456,39.3477645 25.8290456,38.5997645 25.8290456,37.6777645 C25.8290456,36.7547645 26.4110456,36.0077645 27.1290456,36.0077645 C27.8470456,36.0077645 28.4290456,36.7547645 28.4290456,37.6777645" id="Fill-86" fill="#000000"></path>
                <path d="M48.6360456,37.9897645 C48.6360456,38.9117645 48.0540456,39.6597645 47.3360456,39.6597645 C46.6170456,39.6597645 46.0350456,38.9117645 46.0350456,37.9897645 C46.0350456,37.0667645 46.6170456,36.3197645 47.3360456,36.3197645 C48.0540456,36.3197645 48.6360456,37.0667645 48.6360456,37.9897645" id="Fill-87" fill="#000000"></path>
                <path d="M36.0640456,44.6587645 C35.8250456,45.3927645 36.4170456,46.5287645 36.9710456,46.9947645 C37.5000456,47.4397645 38.8060456,47.6897645 39.4130456,47.3187645 C39.6170456,47.1937645 39.6210456,46.8937645 39.4130456,46.7687645 C38.8830456,46.4507645 38.1600456,46.7277645 37.5770456,46.4547645 C36.9450456,46.1597645 36.7460456,45.1777645 36.4200456,44.6117645 C36.3320456,44.4607645 36.1150456,44.5017645 36.0640456,44.6587645" id="Fill-88" fill="#000000"></path>
                <path d="M38.6000456,42.4537645 C39.8970456,43.8407645 41.7490456,40.4447645 41.7370456,39.4657645 C41.7260456,38.6277645 40.6730456,37.8267645 39.8590456,38.0877645 C39.5530456,38.1847645 39.2470456,38.2857645 38.9430456,38.3907645 C37.7950456,38.7777645 37.9610456,36.9467645 37.9710456,36.4997645 C38.0010456,35.0807645 37.9160456,33.5127645 38.3200456,32.1397645 C38.4430456,31.7207645 37.8020456,31.5487645 37.6700456,31.9607645 C37.2800456,33.1857645 37.3120456,34.5687645 37.2870456,35.8477645 C37.2710456,36.6477645 37.1120456,37.7337645 37.5410456,38.4667645 C37.7470456,38.8177645 38.1980456,39.1627645 38.6290456,39.1017645 C38.9720456,39.0847645 39.3000456,39.0057645 39.6120456,38.8647645 C40.8730456,39.8297645 41.1430456,40.6267645 40.4260456,41.2527645 C40.1390456,41.5497645 39.2880456,42.4487645 38.8180456,42.1717645 C38.6390456,42.0667645 38.4640456,42.3067645 38.6000456,42.4537645" id="Fill-89" fill="#000000"></path>
                <path d="M46.2170456,29.2057645 C46.1730456,29.2837645 46.1450456,29.3357645 46.1370456,29.4247645 C46.1220456,29.5657645 46.2580456,29.6557645 46.3790456,29.6677645 C49.0330456,29.9347645 51.3350456,32.8377645 52.2990456,35.1407645 C52.4330456,35.4637645 53.0110456,35.4707645 52.9710456,35.0497645 C52.8180456,33.4297645 51.3110456,31.7137645 50.0970456,30.7317645 C49.3830456,30.1537645 48.5030456,29.6367645 47.6610456,29.2717645 C47.3500456,29.1367645 47.1700456,29.1097645 46.8510456,29.1347645 C46.3590456,29.1737645 46.7370456,29.5557645 46.5410456,29.2057645 C46.4720456,29.0837645 46.2850456,29.0837645 46.2170456,29.2057645" id="Fill-90" fill="#000000"></path>
                <path d="M27.1290456,29.9337576 C25.9370456,29.9417645 24.5020456,30.3377645 23.5650456,31.1207645 C22.3300456,32.1557645 21.0570456,33.6347645 20.2020456,34.9987645 C19.9930456,35.3317645 20.4860456,35.7217645 20.7510456,35.4217645 C22.6590456,33.2607645 24.1190456,30.8737645 27.1930456,30.4077645 C27.4680456,30.3667645 27.3940456,29.9317645 27.1290456,29.9337576" id="Fill-91" fill="#000000"></path>
                <path d="M32.9410456,45.7307645 C32.5310456,47.5487645 29.8690456,48.4977645 26.9960456,47.8487645 C24.1240456,47.2007645 22.1270456,45.2017645 22.5370456,43.3827645 C22.9470456,41.5647645 25.6090456,40.6167645 28.4820456,41.2647645 C31.3540456,41.9127645 33.3510456,43.9117645 32.9410456,45.7307645" id="Fill-96" fill="#F9B28F"></path>
                <path d="M53.1670456,43.1047645 C53.7290456,44.8817645 51.9060456,47.0417645 49.0970456,47.9287645 C46.2900456,48.8147645 43.5570456,48.0927645 42.9970456,46.3157645 C42.4350456,44.5377645 44.2580456,42.3787645 47.0660456,41.4917645 C49.8740456,40.6047645 52.6060456,41.3277645 53.1670456,43.1047645" id="Fill-97" fill="#F9B28F"></path>
                <path d="M27.7030456,70.9727645 C32.4510456,74.5647645 42.0810456,75.5517645 46.5430456,70.9637645 C46.7670456,70.7337645 46.4690456,70.3127645 46.1910456,70.5077645 C40.9050456,74.2057645 33.3000456,73.8707645 27.8060456,70.7947645 C27.6870456,70.7277645 27.5990456,70.8937645 27.7030456,70.9727645" id="Fill-98" fill="#000000"></path>
                <path d="M28.3170456,70.3097645 C28.9100456,68.8127645 29.6290456,67.3837645 30.2990456,65.9227645 C30.4050456,65.6887645 30.1090456,65.4027645 29.9160456,65.6277645 C28.9040456,66.8057645 28.3330456,68.7277645 27.9420456,70.2067645 C27.8770456,70.4547645 28.2270456,70.5387645 28.3170456,70.3097645" id="Fill-99" fill="#000000"></path>
                <path d="M31.2710456,71.3877645 C31.2810456,71.4037645 31.2920456,71.4197645 31.3030456,71.4357645 C31.4030456,71.5877645 31.6440456,71.5317645 31.6480456,71.3417645 C31.6820456,69.7837645 31.9360456,68.2977645 32.2880456,66.7837645 C32.3600456,66.4687645 31.8960456,66.3397645 31.8040456,66.6497645 C31.3530456,68.1687645 31.2430456,69.7667645 31.2770456,71.3417645 C31.3700456,71.2887645 31.4640456,71.2347645 31.5560456,71.1817645 C31.5400456,71.1717645 31.5240456,71.1607645 31.5090456,71.1497645 C31.3640456,71.0557645 31.1770456,71.2437645 31.2710456,71.3877645" id="Fill-100" fill="#000000"></path>
                <path d="M34.3600456,71.7147645 C34.3670456,71.7307645 34.3730456,71.7467645 34.3800456,71.7627645 C34.4470456,71.9277645 34.7320456,71.9277645 34.7180456,71.7167645 C34.6070456,70.0927645 34.8190456,68.4567645 34.7070456,66.8417645 C34.6880456,66.5847645 34.2710456,66.4897645 34.2270456,66.7767645 C33.9940456,68.2977645 33.9640456,70.2767645 34.3800456,71.7627645 C34.4640456,71.6977645 34.5490456,71.6327645 34.6330456,71.5677645 C34.6150456,71.5607645 34.5970456,71.5527645 34.5810456,71.5457645 C34.4770456,71.5007645 34.3040456,71.5767645 34.3600456,71.7147645" id="Fill-101" fill="#000000"></path>
                <path d="M37.0020456,66.4667645 C37.0760456,67.3077645 37.1650456,68.1447645 37.2480456,68.9857645 C37.3260456,69.7647645 37.2660456,70.5597645 37.4200456,71.3277645 C37.4790456,71.6267645 37.9180456,71.5397645 37.9310456,71.2587645 C38.0050456,69.6437645 37.7600456,68.0267645 37.4120456,66.4537645 C37.3910456,66.3587645 37.3020456,66.3087645 37.2130456,66.3017645 C37.1990456,66.3007645 37.1840456,66.2997645 37.1710456,66.2977645 C37.0850456,66.2917645 36.9940456,66.3797645 37.0020456,66.4667645" id="Fill-102" fill="#000000"></path>
                <path d="M40.6790456,72.3417645 C40.6770456,72.3557645 40.6750456,72.3697645 40.6730456,72.3837645 C40.7830456,72.3837645 40.8920456,72.3837645 41.0030456,72.3837645 C40.9960456,70.4607645 41.1050456,68.1397645 40.4130456,66.3167645 C40.2980456,66.0147645 39.8710456,66.1297645 39.9290456,66.4507645 C40.2870456,68.4207645 40.2480456,70.4827645 40.6790456,72.4277645 C40.7190456,72.6057645 41.0260456,72.5687645 41.0030456,72.3837645 C41.0010456,72.3697645 40.9990456,72.3557645 40.9970456,72.3417645 C40.9710456,72.1367645 40.7050456,72.1367645 40.6790456,72.3417645" id="Fill-103" fill="#000000"></path>
                <path d="M41.6870456,65.8527645 C41.9220456,66.5107645 42.1630456,67.1627645 42.3730456,67.8297645 C42.6010456,68.5527645 42.6880456,69.3157645 42.9580456,70.0257645 C43.0410456,70.2417645 43.4110456,70.2317645 43.3910456,69.9667645 C43.2790456,68.4987645 42.7170456,67.0017645 42.0520456,65.6997645 C41.9500456,65.4997645 41.6120456,65.6397645 41.6870456,65.8527645" id="Fill-104" fill="#000000"></path>
                <path d="M44.0650456,65.0607645 C44.0850456,65.1147645 44.1010456,65.1617645 44.1410456,65.2047645 C44.2760456,65.3467645 44.5100456,65.2347645 44.5140456,65.0497645 C44.5140456,65.0367645 44.5140456,65.0217645 44.5140456,65.0087645 C44.3790456,65.0457645 44.2430456,65.0817645 44.1060456,65.1187645 C44.5020456,65.6937645 44.8930456,66.2487645 45.1290456,66.9107645 C45.3810456,67.6187645 45.5150456,68.3447645 45.7020456,69.0687645 C45.7650456,69.3187645 46.1510456,69.2647645 46.148063,69.0087645 C46.1320456,67.4657645 45.3850456,66.0937645 44.4850456,64.8977645 C44.3630456,64.7367645 44.0710456,64.7707645 44.0770456,65.0087645 C44.0770456,65.0217645 44.0770456,65.0367645 44.0780456,65.0497645 C44.2020456,64.9987645 44.3260456,64.9467645 44.4500456,64.8957645 C44.4080456,64.8547645 44.3600456,64.8387645 44.3070456,64.8187645 C44.1710456,64.7667645 44.0150456,64.9257645 44.0650456,65.0607645" id="Fill-105" fill="#000000"></path>
                <g id="Glasses" transform="translate(15.720046, 26.860765)" fill="#2C2945">
                    <path d="M10.125,1 C5.094,1 1,5.093 1,10.125 C1,15.156 5.094,19.249 10.125,19.249 C15.157,19.249 19.25,15.156 19.25,10.125 C19.25,5.093 15.157,1 10.125,1 Z M10.125,20.249 C4.542,20.249 0,15.707 0,10.125 C0,4.542 4.542,1.77635684e-15 10.125,1.77635684e-15 C15.708,1.77635684e-15 20.25,4.542 20.25,10.125 C20.25,15.707 15.708,20.249 10.125,20.249 L10.125,20.249 Z" id="Fill-33"></path>
                    <path d="M34.998,1 C29.966,1 25.873,5.093 25.873,10.125 C25.873,15.156 29.966,19.249 34.998,19.249 C40.029,19.249 44.123,15.156 44.123,10.125 C44.123,5.093 40.029,1 34.998,1 Z M34.998,20.249 C29.415,20.249 24.873,15.707 24.873,10.125 C24.873,4.542 29.415,1.77635684e-15 34.998,1.77635684e-15 C40.581,1.77635684e-15 45.123,4.542 45.123,10.125 C45.123,15.707 40.581,20.249 34.998,20.249 L34.998,20.249 Z" id="Fill-34"></path>
                    <path d="M19.907,10.426 L19.333,9.825 C19.416,9.747 21.394,7.904 25.402,9.417 L25.109,10.194 C21.621,8.877 19.975,10.362 19.907,10.426" id="Fill-35"></path>
                </g>
                <g id="Hair">
                    <path d="M40.5750456,58.7957645 C40.2220456,58.7957645 41.9910456,65.9277645 41.0750456,66.6947645 C40.1580456,67.4627645 47.2830456,67.0787645 50.1790456,67.0617645 C53.0750456,67.0457645 57.4090456,68.6297645 58.9920456,66.1297645 C60.5750456,63.6297645 57.2420456,58.7127645 57.0750456,55.2957645 C56.9090456,51.8797645 56.7420456,47.7997645 56.7420456,47.7997645 C56.7420456,47.7997645 43.8250456,58.7957645 40.5750456,58.7957645" id="Fill-7-Copy" fill="#F79C0B"></path>
                    <path d="M15.7780456,44.4167645 C13.7210456,44.9477645 8.61904561,44.0107645 8.20204561,38.3567645 C8.74604561,31.6667645 15.4040456,32.0837645 15.4040456,32.0837645 C21.4830456,26.7877645 21.1580456,14.8797645 21.1580456,14.8797645 L20.9080456,12.4837645 C20.9080456,12.4837645 19.0960456,3.29576452 17.4080456,3.85876452 C15.7210456,4.42076452 18.3460456,12.3587645 18.3460456,12.3587645 C18.3460456,12.3587645 13.5330456,6.60876452 12.4080456,7.98376452 C11.2830456,9.35876452 18.0960456,13.5457645 18.0960456,13.5457645 C6.40804561,12.0457645 2.47104561,21.9207645 3.47104561,25.0457645 C4.47104561,28.1707645 9.09604561,31.7957645 4.34604561,35.7957645 C-0.403954391,39.7957645 -0.841954391,45.1087645 1.03304561,47.5457645 C2.90804561,49.9837645 6.22104561,51.2957645 5.59604561,55.2337645 C4.97104561,59.1707645 3.03304561,63.6087645 5.03304561,65.6707645 C5.80704561,66.4687645 10.2060456,67.1177645 12.5540456,67.0617645 C13.8380456,67.0317645 14.2020456,62.2957645 14.2020456,62.2957645 C15.2620456,62.2047645 14.4430456,66.7867645 15.5020456,66.6947645 C16.3810456,66.6197645 17.7610456,66.7187645 19.0930456,66.8337645 C21.4400456,59.9287645 16.7560456,51.8917645 15.7780456,44.4167645" id="Fill-17-Copy" fill="#FEB01B"></path>
                    <path d="M30.8950456,59.5237645 C19.9860456,55.5417645 16.2830456,44.2337645 16.2830456,44.2337645 C16.1500456,44.3077645 15.9720456,44.3667645 15.7780456,44.4167645 C16.7560456,51.8917645 21.4400456,59.9287645 19.0930456,66.8337645 C20.3580456,66.9427645 21.5800456,67.0657645 22.2830456,67.0657645 C28.0960456,67.0657645 31.1950456,67.3037645 31.4850456,66.9207645 C33.1160456,64.7637645 33.2320456,60.1017645 33.2320456,60.1017645 L30.8950456,59.5237645" id="Fill-18-Copy" fill="#F79C0B"></path>
                    <path d="M34.2520456,6.21276452 C29.2200456,6.65376452 24.3110456,8.56676452 20.9450456,10.1757645 C20.8200456,10.4517645 20.6980456,10.7287645 20.5900456,11.0177645 C20.5900456,11.0177645 20.7440456,12.9427645 21.1180456,16.7447645 C21.1180456,16.7447645 28.6580456,9.54576452 40.1220456,12.9207645 C43.3280456,13.6807645 45.2490456,15.2347645 45.4160456,17.5247645 C47.1060456,12.1007645 42.1940456,5.51676452 34.2520456,6.21276452" id="Fill-36-Copy" fill="#F79C0B"></path>
                    <path d="M75.1590456,47.7997645 C77.3450456,43.8787645 81.0400456,38.5667645 75.6240456,31.6507645 C70.2070456,24.7337645 68.0340456,28.7027645 67.3250456,19.7127645 C66.7230456,12.0767645 61.6990456,3.75476452 52.2820456,1.17076452 C43.1030456,-1.34723548 25.7580456,-0.426235485 20.9450456,10.1757645 C24.3110456,8.56676452 29.2200456,6.65376452 34.2520456,6.21276452 C42.1940456,5.51676452 47.1060456,12.1007645 45.4160456,17.5247645 C45.4690456,18.2507645 45.3490456,19.0487645 45.0330456,19.9207645 C43.7000456,23.6017645 46.2060456,28.4067645 53.7020456,34.0797645 C60.3690456,39.1247645 57.4130456,42.3157645 54.9970456,49.4817645 C52.5800456,56.6487645 52.2460456,59.3917645 57.0240456,63.3277645 C58.8240456,64.8097645 58.4090456,68.1147645 58.4090456,68.1147645 C58.4090456,68.1147645 63.2530456,67.8007645 65.4710456,68.1147645 C66.3580456,68.2397645 64.6500456,64.1827645 65.7020456,64.2657645 C66.4900456,64.3277645 67.2220456,68.1017645 68.0490456,68.1147645 C70.6580456,68.1537645 74.0110456,68.3877645 76.1770456,67.7757645 C78.4342348,67.1387645 76.9510456,60.0867645 76.0340456,57.6707645 C75.1170456,55.2537645 73.8270456,50.1867645 75.1590456,47.7997645" id="Fill-37-Copy" fill="#FEB01B"></path>
                </g>
            </g>
        </g>
    </g>
</svg>